<svg width="116" height="20" viewBox="0 0 116 20" fill="none" xmlns="http://www.w3.org/2000/svg">
<path d="M9.04897 2.92708C9.34897 2.00608 10.652 2.00608 10.951 2.92708L12.021 6.21908C12.0863 6.41957 12.2134 6.59426 12.384 6.71818C12.5547 6.84211 12.7601 6.90892 12.971 6.90908H16.433C17.402 6.90908 17.804 8.14908 17.021 8.71908L14.221 10.7531C14.05 10.8771 13.9227 11.0521 13.8573 11.2529C13.7919 11.4538 13.7918 11.6702 13.857 11.8711L14.927 15.1631C15.227 16.0841 14.172 16.8511 13.387 16.2811L10.587 14.2471C10.4162 14.1231 10.2105 14.0563 9.99947 14.0563C9.78842 14.0563 9.58277 14.1231 9.41197 14.2471L6.61197 16.2811C5.82797 16.8511 4.77397 16.0841 5.07297 15.1631L6.14297 11.8711C6.20815 11.6702 6.20803 11.4538 6.14264 11.2529C6.07725 11.0521 5.94994 10.8771 5.77897 10.7531L2.97997 8.72008C2.19697 8.15008 2.59997 6.91008 3.56797 6.91008H7.02897C7.24002 6.91013 7.44568 6.84342 7.6165 6.71948C7.78732 6.59554 7.91455 6.42073 7.97997 6.22008L9.04997 2.92808L9.04897 2.92708Z" fill="#7635DC"/>
<path d="M33.049 2.92708C33.349 2.00608 34.652 2.00608 34.951 2.92708L36.021 6.21908C36.0863 6.41957 36.2134 6.59426 36.384 6.71818C36.5547 6.84211 36.7601 6.90892 36.971 6.90908H40.433C41.402 6.90908 41.804 8.14908 41.021 8.71908L38.221 10.7531C38.05 10.8771 37.9227 11.0521 37.8573 11.2529C37.7919 11.4538 37.7918 11.6702 37.857 11.8711L38.927 15.1631C39.227 16.0841 38.172 16.8511 37.387 16.2811L34.587 14.2471C34.4162 14.1231 34.2105 14.0563 33.9995 14.0563C33.7884 14.0563 33.5828 14.1231 33.412 14.2471L30.612 16.2811C29.828 16.8511 28.774 16.0841 29.073 15.1631L30.143 11.8711C30.2081 11.6702 30.208 11.4538 30.1426 11.2529C30.0773 11.0521 29.9499 10.8771 29.779 10.7531L26.98 8.72008C26.197 8.15008 26.6 6.91008 27.568 6.91008H31.029C31.24 6.91013 31.4457 6.84342 31.6165 6.71948C31.7873 6.59554 31.9145 6.42073 31.98 6.22008L33.05 2.92808L33.049 2.92708Z" fill="#7635DC"/>
<path d="M57.049 2.92708C57.349 2.00608 58.652 2.00608 58.951 2.92708L60.021 6.21908C60.0863 6.41957 60.2134 6.59426 60.384 6.71818C60.5547 6.84211 60.7601 6.90892 60.971 6.90908H64.433C65.402 6.90908 65.804 8.14908 65.021 8.71908L62.221 10.7531C62.05 10.8771 61.9227 11.0521 61.8573 11.2529C61.7919 11.4538 61.7918 11.6702 61.857 11.8711L62.927 15.1631C63.227 16.0841 62.172 16.8511 61.387 16.2811L58.587 14.2471C58.4162 14.1231 58.2105 14.0563 57.9995 14.0563C57.7884 14.0563 57.5828 14.1231 57.412 14.2471L54.612 16.2811C53.828 16.8511 52.774 16.0841 53.073 15.1631L54.143 11.8711C54.2081 11.6702 54.208 11.4538 54.1426 11.2529C54.0773 11.0521 53.9499 10.8771 53.779 10.7531L50.98 8.72008C50.197 8.15008 50.6 6.91008 51.568 6.91008H55.029C55.24 6.91013 55.4457 6.84342 55.6165 6.71948C55.7873 6.59554 55.9145 6.42073 55.98 6.22008L57.05 2.92808L57.049 2.92708Z" fill="#7635DC"/>
<path d="M81.049 2.92708C81.349 2.00608 82.652 2.00608 82.951 2.92708L84.021 6.21908C84.0863 6.41957 84.2134 6.59426 84.384 6.71818C84.5547 6.84211 84.7601 6.90892 84.971 6.90908H88.433C89.402 6.90908 89.804 8.14908 89.021 8.71908L86.221 10.7531C86.05 10.8771 85.9227 11.0521 85.8573 11.2529C85.7919 11.4538 85.7918 11.6702 85.857 11.8711L86.927 15.1631C87.227 16.0841 86.172 16.8511 85.387 16.2811L82.587 14.2471C82.4162 14.1231 82.2105 14.0563 81.9995 14.0563C81.7884 14.0563 81.5828 14.1231 81.412 14.2471L78.612 16.2811C77.828 16.8511 76.774 16.0841 77.073 15.1631L78.143 11.8711C78.2081 11.6702 78.208 11.4538 78.1426 11.2529C78.0773 11.0521 77.9499 10.8771 77.779 10.7531L74.98 8.72008C74.197 8.15008 74.6 6.91008 75.568 6.91008H79.029C79.24 6.91013 79.4457 6.84342 79.6165 6.71948C79.7873 6.59554 79.9145 6.42073 79.98 6.22008L81.05 2.92808L81.049 2.92708Z" fill="#7635DC"/>
<path d="M105.049 2.92708C105.349 2.00608 106.652 2.00608 106.951 2.92708L108.021 6.21908C108.086 6.41957 108.213 6.59426 108.384 6.71818C108.555 6.84211 108.76 6.90892 108.971 6.90908H112.433C113.402 6.90908 113.804 8.14908 113.021 8.71908L110.221 10.7531C110.05 10.8771 109.923 11.0521 109.857 11.2529C109.792 11.4538 109.792 11.6702 109.857 11.8711L110.927 15.1631C111.227 16.0841 110.172 16.8511 109.387 16.2811L106.587 14.2471C106.416 14.1231 106.211 14.0563 105.999 14.0563C105.788 14.0563 105.583 14.1231 105.412 14.2471L102.612 16.2811C101.828 16.8511 100.774 16.0841 101.073 15.1631L102.143 11.8711C102.208 11.6702 102.208 11.4538 102.143 11.2529C102.077 11.0521 101.95 10.8771 101.779 10.7531L98.98 8.72008C98.197 8.15008 98.6 6.91008 99.568 6.91008H103.029C103.24 6.91013 103.446 6.84342 103.616 6.71948C103.787 6.59554 103.915 6.42073 103.98 6.22008L105.05 2.92808L105.049 2.92708Z" fill="#7635DC"/>
</svg>
