<svg width="148" height="24" viewBox="0 0 148 24" fill="none" xmlns="http://www.w3.org/2000/svg">
<path fill-rule="evenodd" clip-rule="evenodd" d="M68.5854 12.0124C68.5854 17.2118 72.0888 21 77.213 21C82.1942 21 85.8168 17.3851 85.8168 12.0124C85.8168 6.63961 82.1942 3 77.213 3C72.0888 3 68.5854 6.78817 68.5854 12.0124ZM82.3371 12.0124C82.3371 15.3054 80.1445 17.7565 77.2369 17.7565C74.1861 17.7565 72.065 15.2064 72.065 12.0124C72.065 8.81839 74.1861 6.26823 77.2369 6.26823C80.1445 6.26823 82.3371 8.69464 82.3371 12.0124ZM140.655 5.03023C140.655 6.11964 141.536 7.01097 142.586 7.01097C143.658 7.01097 144.539 6.11964 144.539 5.03023C144.539 3.94081 143.658 3.04949 142.586 3.04949C141.536 3.04949 140.655 3.94081 140.655 5.03023ZM141.012 8.71939V20.8019H144.134V8.71939H141.012ZM138.762 8.71939H135.664V10.0812H135.592C134.758 9.04125 133.566 8.52135 132.184 8.52135C129.062 8.52135 126.702 11.121 126.702 14.7855C126.702 18.5241 129.038 21 132.256 21C133.757 21 134.949 20.4058 135.735 19.3412H135.807V20.802H138.762V8.71939ZM135.783 14.8103C135.783 16.7909 134.449 18.1032 132.827 18.1032C131.087 18.1032 129.848 16.7662 129.848 14.8103C129.848 12.7305 131.184 11.4181 132.851 11.4181C134.544 11.4181 135.783 12.879 135.783 14.8103ZM123.52 21C122.448 21 121.59 20.1334 121.59 19.044C121.59 17.9545 122.448 17.0633 123.52 17.0633C124.569 17.0633 125.45 17.9545 125.45 19.044C125.45 20.1334 124.569 21 123.52 21ZM122.409 8.5461C122.361 8.52135 122.266 8.52135 122.17 8.52135C120.788 8.52135 119.525 9.21461 118.643 10.5021H118.619V8.71939H115.497V20.802H118.619V15.1816C118.619 13.3989 119.668 12.0371 121.599 12.0371C121.765 12.0371 122.099 12.0371 122.409 12.0619V8.5461ZM113.958 14.6369C113.958 15.033 113.958 15.6025 113.887 15.8006H105.712C106.093 17.2366 107.189 18.128 108.691 18.128C109.93 18.1527 110.836 17.5833 111.48 16.7662L113.506 18.7222C112.504 20.0344 110.813 21 108.477 21C105.069 21 102.495 18.5241 102.495 14.7359C102.495 11.0715 104.95 8.52135 108.262 8.52135C111.67 8.52135 113.958 11.0963 113.958 14.6369ZM108.358 11.3686C107.094 11.3686 106.093 12.0867 105.736 13.4732H110.86C110.55 12.2105 109.716 11.3686 108.358 11.3686ZM96.0685 16.9889C96.0685 19.7124 97.3789 21 99.3812 21C100.954 21 101.717 20.678 102.479 20.2572L101.669 17.6574C101.144 17.9298 100.572 18.0784 100.191 18.0784C99.4765 18.0784 99.1668 17.5831 99.1668 16.5433V11.3934H102.336V8.71939H99.1668V4.41123L96.0685 4.75787V8.71939H94.6856V11.3934H96.0685V16.9889ZM91.2339 21C89.2319 21 87.921 19.7124 87.921 16.9889V11.3934H86.5388V8.71939H87.921V4.75787L91.0194 4.41123V8.71939H94.1896V11.3934H91.0194V16.5433C91.0194 17.5831 91.3292 18.0784 92.0443 18.0784C92.4256 18.0784 92.9973 17.9298 93.5215 17.6574L94.3326 20.2572C93.5691 20.678 92.8067 21 91.2339 21Z" fill="black"/>
<path fill-rule="evenodd" clip-rule="evenodd" d="M17.1245 11.9222C17.1245 15.1132 14.6344 17.7 11.5628 17.7C8.49114 17.7 6.00108 15.1132 6.00108 11.9222C6.00108 8.7312 8.49114 6.14441 11.5628 6.14441C14.6344 6.14441 17.1245 8.7312 17.1245 11.9222ZM0 12C0 18.6274 5.17166 24 11.5512 24C17.9308 24 23.1024 18.6274 23.1024 12C23.1024 5.37258 17.9308 0 11.5512 0C5.17166 0 0 5.37258 0 12ZM28.7986 0.328576C30.5465 0.328576 31.9634 1.80052 31.9634 3.61625V20.3834C31.9634 22.1991 30.5465 23.671 28.7986 23.671C27.0508 23.671 25.6339 22.1991 25.6339 20.3834V3.61625C25.6339 1.80052 27.0508 0.328576 28.7986 0.328576ZM37.6601 0.328576C39.408 0.328576 40.8249 1.80052 40.8249 3.61625V20.3834C40.8249 22.1991 39.408 23.671 37.6601 23.671C35.9123 23.671 34.4954 22.1991 34.4954 20.3834V3.61625C34.4954 1.80052 35.9123 0.328576 37.6601 0.328576ZM49.686 11.1782C49.686 9.36249 48.2691 7.89055 46.5213 7.89055C44.7734 7.89055 43.3565 9.36249 43.3565 11.1782V13.1508C43.3565 14.9666 44.7734 16.4385 46.5213 16.4385C48.2691 16.4385 49.686 14.9666 49.686 13.1508V11.1782ZM55.3826 4.60277C57.1304 4.60277 58.5473 6.0747 58.5473 7.89043V16.1096C58.5473 17.9253 57.1304 19.3973 55.3826 19.3973C53.6347 19.3973 52.2178 17.9253 52.2178 16.1096V7.89043C52.2178 6.0747 53.6347 4.60277 55.3826 4.60277Z" fill="black"/>
</svg>
