<svg width="81" height="24" viewBox="0 0 81 24" fill="none" xmlns="http://www.w3.org/2000/svg">
<g clip-path="url(#clip0_413_1564)">
<path fill-rule="evenodd" clip-rule="evenodd" d="M57.195 0.0942717C57.7427 0.0867837 58.2902 0.0792968 58.8378 0.0816008C59.5403 0.0873608 60.2411 0.118847 60.9435 0.0975353L61.347 0.0645119L61.4878 0.0301437L61.4948 0.285504C61.4981 0.408576 61.5012 0.532031 61.5029 0.655295C61.4992 1.5481 61.4933 2.44224 61.4965 3.33485C61.4948 7.93709 61.5001 12.538 61.4933 17.1402C61.4996 18.4163 61.4992 19.6921 61.4987 20.9679L61.4981 22.6353L61.4992 23.9455L61.2838 23.9426C60.5197 23.9363 59.7557 23.9357 58.9921 23.9361L57.1039 23.9368C57.0413 23.934 56.9137 23.9282 56.8506 23.924L56.8461 23.6264L56.843 23.447C56.8408 23.2723 56.8388 23.0974 56.8382 22.9225C55.6214 23.5507 54.2786 23.9169 52.9165 23.8982C52.6899 23.894 52.4655 23.8883 52.2415 23.8739C50.6727 23.7295 49.1456 23.1143 47.8907 22.1201C47.5547 21.8425 47.2338 21.542 46.9349 21.2202C46.6203 20.8754 46.3325 20.5064 46.0636 20.1229C45.3049 18.9469 44.8141 17.598 44.6249 16.196C44.6153 15.9268 44.603 15.6572 44.5965 15.3878L44.5934 15.1717C44.5923 15.0764 44.5923 14.9812 44.5934 14.886C44.5965 14.6772 44.6063 14.4687 44.626 14.2604C44.6904 13.5222 44.8812 12.8068 45.0912 12.1016C45.4656 11.2431 45.8535 10.3791 46.4461 9.65664C47.3502 8.5008 48.5273 7.58093 49.8577 7.02874C50.4295 6.78394 51.0316 6.62093 51.6424 6.51936C52.3749 6.39629 53.1224 6.38054 53.8628 6.43354C54.5776 6.55661 55.2935 6.70675 55.9712 6.98707C56.2633 7.10592 56.5525 7.23898 56.8419 7.37203C56.8318 6.15571 56.8333 4.93959 56.8366 3.72307L56.8414 2.31168L56.8436 1.05312C56.8484 0.94464 56.8515 0.835967 56.8542 0.727295L56.8618 0.378431L56.8671 0.0988801L57.195 0.0942717ZM49.3336 14.0943C48.9249 15.5779 49.4477 17.2933 50.6421 18.2189L50.6561 18.2717C51.5519 18.9913 52.7477 19.2589 53.8479 18.9827C55.0866 18.6737 56.1506 17.6796 56.5446 16.4104C56.8629 15.4149 56.7926 14.3032 56.3307 13.3692L56.3045 13.3548C55.7944 12.2661 54.7545 11.4735 53.612 11.2689C51.763 10.8956 49.8083 12.2031 49.3336 14.0943Z" fill="black"/>
<path d="M37.5776 0.085248L37.862 0.0873603L38.4792 0.0959999C39.0199 0.105984 39.5589 0.10752 40.0996 0.0902401C40.2833 0.0846721 40.4682 0.0817909 40.6546 0.0817909C40.8947 0.0875509 41.1364 0.100415 41.3765 0.131903C41.3299 1.18195 41.3255 2.23334 41.3588 3.28339C41.3378 4.44365 41.3378 5.60525 41.3518 6.76685C41.3448 8.8656 41.3448 10.9643 41.3501 13.0616C41.3465 15.4525 41.3481 17.8437 41.349 20.2345L41.3501 23.8197L41.2859 23.9699C40.449 23.9069 39.6108 23.9384 38.7729 23.9355L38.6309 23.9351C37.9988 23.9338 37.3664 23.9322 36.7348 23.947C36.7144 23.8153 36.6989 23.6838 36.6908 23.5536C36.6972 22.6149 36.7015 21.676 36.7048 20.7373C36.7138 17.7763 36.7074 14.8153 36.6989 11.8541C36.7074 11.3973 36.7079 10.9405 36.7079 10.4842L36.7085 10.046L36.7101 9.64953C36.7127 9.49613 36.7133 9.34329 36.7133 9.19065L36.7079 7.65005C36.7063 7.3488 36.7048 7.04794 36.7048 6.74688C36.7155 6.1872 36.7127 5.62752 36.7101 5.06784C36.7079 4.69478 36.7063 4.32173 36.7085 3.94867L36.7101 2.87443C36.7107 2.23104 36.709 1.58765 36.7048 0.944449C36.7074 0.718465 36.7144 0.493822 36.7267 0.269183L36.7401 0.10464C36.9056 0.0952316 37.0711 0.0898563 37.2368 0.0873603C37.3504 0.0854403 37.464 0.084864 37.5776 0.085248Z" fill="black"/>
<path d="M7.81561 6.38054C6.09729 6.39782 4.31518 6.7511 2.87066 7.76966C2.06158 8.352 1.39611 9.1703 1.05749 10.1374C0.694204 11.1287 0.697959 12.2202 0.866734 13.2545C1.04355 14.1059 1.50755 14.847 2.09051 15.4593C3.51952 16.5996 5.29679 16.8856 7.03709 17.166C7.24605 17.1997 7.45448 17.2333 7.66184 17.2683C7.87241 17.3038 8.08137 17.3407 8.28873 17.3804C9.03244 17.5135 10.1228 17.8454 9.9926 18.8527C9.55109 19.6608 8.62896 19.9183 7.79794 19.9655C7.38215 19.9799 6.9669 19.9812 6.55218 19.9571C6.19587 19.9269 5.83903 19.8826 5.48646 19.8211C4.47271 19.6351 3.48147 19.2745 2.62257 18.6737C1.74225 19.5479 0.869422 20.4348 0.0180196 21.3389L-0.0302124 21.4005C0.0828562 21.5017 0.195907 21.6044 0.307889 21.7079L0.47346 21.8627C0.907988 22.1626 1.36129 22.4321 1.83172 22.6656C2.15964 22.8282 2.49612 22.9734 2.83958 23.0986C4.40573 23.6707 6.06942 24.0098 7.73471 23.9255C9.63576 23.8368 11.6456 23.3345 13.0719 21.9454C14.7151 20.3718 14.9622 17.4948 13.6768 15.6136C12.4477 14.0413 10.4137 13.6696 8.60325 13.3548C8.405 13.3171 8.20462 13.2839 8.00368 13.2503C7.15603 13.1092 6.29714 12.9661 5.55505 12.4979C5.27107 12.1488 5.12426 11.631 5.39217 11.2245C5.81009 10.5608 6.63738 10.4321 7.33821 10.349C8.77311 10.239 10.2476 10.5437 11.4779 11.3405C12.3254 10.4565 13.1914 9.59078 14.0336 8.69952L14.0154 8.53517C12.8495 7.58093 11.4618 6.95712 10.0188 6.62803L9.86292 6.59558L9.6845 6.55987C9.48841 6.52186 9.2923 6.48806 9.09565 6.4608C8.67022 6.40493 8.24372 6.38208 7.81561 6.38054Z" fill="black"/>
<path fill-rule="evenodd" clip-rule="evenodd" d="M22.6452 6.74688L22.9967 6.66682C23.2662 6.60442 23.5357 6.54221 23.8083 6.49229C24.0999 6.44736 24.393 6.42202 24.6866 6.41127C24.992 6.40013 25.2985 6.40474 25.6039 6.41933C26.8523 6.50938 28.0702 6.90989 29.1648 7.53811C30.185 8.15463 31.0766 8.99155 31.7861 9.97287C32.4333 10.8943 32.8888 11.9514 33.1743 13.0516C33.7021 15.3377 33.3415 17.8454 32.1112 19.8253C30.6791 22.1816 28.1372 23.7738 25.4559 23.8954C24.131 23.9384 22.8085 23.6893 21.5891 23.1458C20.7714 22.7581 20.0486 22.1973 19.3489 21.6165C19.3436 21.6108 19.3301 21.5994 19.3231 21.595C17.8347 20.1187 16.8499 18.0945 16.6645 15.9542C16.6291 15.3577 16.6196 14.7583 16.6785 14.1617C16.7786 13.4636 16.9174 12.7668 17.16 12.1058C17.3782 11.5008 17.6525 10.9171 17.9927 10.3778C19.0831 8.6567 20.7425 7.33344 22.6452 6.74688ZM21.2585 14.8312C21.1418 16.1173 21.699 17.4263 22.6714 18.2189C23.1049 18.6023 23.645 18.8498 24.1925 18.9957C24.9567 19.1558 25.7737 19.1186 26.4913 18.7782C27.6243 18.2861 28.4693 17.1859 28.7368 15.9427C28.8933 14.9213 28.7287 13.8455 28.1703 12.98C27.3817 11.7325 25.8948 11.0158 24.4723 11.2562C22.7824 11.4893 21.3656 13.0529 21.2585 14.8312Z" fill="black"/>
<path fill-rule="evenodd" clip-rule="evenodd" d="M72.0219 6.42221C71.5092 6.45927 71.0017 6.55373 70.4996 6.66394C70.2323 6.73824 69.9702 6.8256 69.7121 6.92563C69.3874 7.05734 69.0674 7.1975 68.7545 7.35917C68.3253 7.59514 67.9139 7.86835 67.5199 8.16461C66.39 9.08448 65.4614 10.2805 64.8865 11.6538C64.3122 13.0285 64.1295 14.5421 64.2076 16.0314C64.3026 16.6251 64.4188 17.2145 64.5795 17.794L64.6798 18.1745C65.4421 20.2172 66.9088 21.9813 68.7959 22.9655C69.2239 23.1815 69.6653 23.3704 70.1154 23.5334C70.8084 23.7151 71.5118 23.8639 72.2277 23.8969C72.4597 23.9044 72.6916 23.9028 72.9236 23.8925C73.1294 23.8835 73.3346 23.8675 73.5394 23.8452C75.3948 23.6335 77.1647 22.7366 78.4826 21.3604C80.0118 19.8083 80.9201 17.6179 80.9639 15.3948C81.0379 13.4206 80.4056 11.452 79.2852 9.86688C77.8944 8.00006 75.8009 6.71674 73.543 6.44218L73.2965 6.42778C73.1605 6.42029 73.0245 6.41376 72.8899 6.40896L72.749 6.40493C72.5046 6.40205 72.2636 6.40627 72.0219 6.42221ZM70.4884 18.4134C69.4034 17.6652 68.7359 16.3146 68.815 14.957C68.8671 13.1716 70.2377 11.558 71.9276 11.2775C73.587 10.94 75.3665 11.9543 76.0233 13.5723C76.4841 14.5851 76.4333 15.8068 75.997 16.8211C75.8245 17.1759 75.6102 17.5048 75.3665 17.8111C74.1539 19.2002 71.9672 19.512 70.4884 18.4134Z" fill="black"/>
</g>
<defs>
<clipPath id="clip0_413_1564">
<rect width="81" height="24" fill="white"/>
</clipPath>
</defs>
</svg>
