<svg width="144" height="24" viewBox="0 0 144 24" fill="none" xmlns="http://www.w3.org/2000/svg">
<g clip-path="url(#clip0_413_1527)">
<path d="M5.06863 23.5496C4.05891 21.0998 3.22947 19.0229 2.5803 17.3187C1.93113 15.6146 1.41606 14.2033 1.03509 13.085C0.653662 11.9666 0.385919 11.103 0.231863 10.4942C0.0778065 9.88537 0.00054623 9.45477 8.22046e-05 9.20241C-0.00408655 8.7661 0.150433 8.34409 0.433018 8.02001C0.721178 7.67985 1.16409 7.50953 1.76175 7.50905C2.2151 7.50905 2.57055 7.55175 2.82808 7.63715C3.00279 7.68977 3.17412 7.7537 3.34107 7.82858C3.58792 8.76606 3.86634 9.76183 4.17631 10.8159C4.48628 11.87 4.80414 12.9185 5.12988 13.9615C5.45981 15.005 5.78462 16.0008 6.10433 16.9488C6.42405 17.8969 6.70734 18.7437 6.9542 19.4892C7.18065 18.8291 7.42263 18.0729 7.68016 17.2209C7.9377 16.3688 8.20568 15.4901 8.48409 14.5847C8.76251 13.6794 9.03536 12.7633 9.30263 11.8364C9.56991 10.9094 9.81725 10.0307 10.0446 9.20025C10.2098 8.64708 10.4418 8.22631 10.7407 7.93797C11.0395 7.64963 11.5186 7.50569 12.178 7.50617C12.556 7.50097 12.9323 7.5603 13.2916 7.68177C13.6206 7.79932 13.8267 7.8792 13.9097 7.92142C14.177 8.88096 14.4654 9.88849 14.7749 10.944C15.0844 11.9995 15.3934 13.038 15.702 14.0594C16.0111 15.0818 16.315 16.0617 16.6139 16.9992C16.9126 17.9367 17.1857 18.7674 17.433 19.4914C17.968 18.0218 18.5191 16.4146 19.0861 14.6697C19.6532 12.9247 20.1724 11.1774 20.6438 9.42767C20.8295 8.76798 21.0717 8.28341 21.3706 7.97395C21.6694 7.6645 22.1276 7.51001 22.7452 7.51049C23.3021 7.51049 23.7544 7.60621 24.1053 7.79836C24.4561 7.99051 24.651 8.10709 24.6927 8.14955C24.527 8.8529 24.2385 9.82204 23.8268 11.057C23.4153 12.2919 22.9512 13.6288 22.4348 15.0676C21.9197 16.507 21.3738 17.9767 20.797 19.477C20.2202 20.9772 19.6743 22.3352 19.1592 23.551H15.5141C15.3493 23.1034 15.1278 22.4482 14.8494 21.5856C14.571 20.723 14.267 19.7805 13.9376 18.7581C13.6081 17.7357 13.2832 16.6864 12.9631 15.6103C12.6429 14.5341 12.3496 13.5484 12.0833 12.6532C11.8151 13.5484 11.5216 14.5337 11.2028 15.6088C10.884 16.684 10.5648 17.7333 10.245 18.7566C9.92486 19.779 9.6312 20.7215 9.36388 21.5842C9.0966 22.4468 8.88036 23.1019 8.71518 23.5496H5.06863Z" fill="black"/>
<path d="M32.5043 7.06178C33.6509 7.05306 34.7888 7.26993 35.8571 7.70084C36.8613 8.10403 37.7795 8.7067 38.5597 9.4748C39.3253 10.2359 39.9348 11.1486 40.3521 12.1584C40.7807 13.2214 41.0014 14.3617 41.0014 15.5135C41.0014 16.6652 40.7807 17.8055 40.3521 18.8685C39.935 19.8787 39.3255 20.7916 38.5597 21.5529C37.7773 22.3226 36.8594 22.9299 35.8556 23.3419C33.6999 24.2149 31.305 24.2149 29.1493 23.3419C28.1467 22.9296 27.23 22.3222 26.4487 21.5529C25.683 20.7916 25.0734 19.8787 24.6563 18.8685C24.228 17.8054 24.0075 16.6651 24.0075 15.5135C24.0075 14.3618 24.228 13.2215 24.6563 12.1584C25.0738 11.1487 25.6834 10.2361 26.4487 9.4748C27.2287 8.70672 28.1466 8.10405 29.1507 7.70084C30.2193 7.26986 31.3572 7.05299 32.5043 7.06178ZM32.5043 20.7699C33.1735 20.7767 33.8369 20.6408 34.4531 20.3704C35.0353 20.1157 35.5575 19.7342 35.9843 19.2521C36.4106 18.7663 36.7457 18.2028 36.9728 17.5904C37.2149 16.9324 37.3355 16.2333 37.3284 15.5293C37.3333 14.8152 37.2129 14.1061 36.9728 13.4365C36.7525 12.8159 36.4167 12.246 35.9843 11.759C35.5536 11.2855 35.0321 10.91 34.4531 10.6565C33.2008 10.124 31.7958 10.124 30.5435 10.6565C29.9709 10.9124 29.4555 11.2877 29.0296 11.759C28.5966 12.2456 28.2606 12.8157 28.0405 13.4365C27.7998 14.1059 27.6792 14.8151 27.6849 15.5293C27.6774 16.2333 27.7979 16.9325 28.0405 17.5904C28.2676 18.203 28.603 18.7665 29.0296 19.2521C29.4519 19.7315 29.9679 20.1127 30.5435 20.3704C31.163 20.6432 31.8309 20.7792 32.5043 20.7699Z" fill="black"/>
<path d="M42.3187 13.229C42.3187 11.2696 42.9009 9.75185 44.0652 8.67572C45.2293 7.59959 46.8416 7.06152 48.9019 7.06152C50.2012 7.06152 51.2568 7.24792 52.0689 7.6207C52.8809 7.99348 53.2879 8.56345 53.2897 9.33061C53.2869 9.7032 53.1853 10.0679 52.9959 10.3849C52.8006 10.726 52.641 10.939 52.5171 11.024C52.098 10.8274 51.6637 10.6671 51.219 10.5447C50.6446 10.3876 50.0521 10.3123 49.4581 10.3209C47.0474 10.3209 45.841 11.6417 45.8387 14.2833V23.5497H42.3187V13.229Z" fill="black"/>
<path d="M53.7 1.69356C53.7 1.11783 53.8647 0.691791 54.1942 0.415441C54.5237 0.139092 54.9876 0.000677371 55.5863 0.000197598C55.9311 -0.00351019 56.2746 0.0449808 56.6059 0.14413C56.915 0.240084 57.1211 0.309172 57.2241 0.351392V13.4046C57.4918 13.2127 57.8678 12.9313 58.3523 12.5604C58.8368 12.1896 59.3775 11.7817 59.9748 11.337C60.572 10.8908 61.1901 10.4235 61.829 9.9351C62.468 9.44669 63.0756 8.99091 63.6519 8.56775C64.0402 8.26846 64.4539 8.00638 64.8881 7.78476C65.2594 7.60388 65.7436 7.51345 66.3407 7.51345C66.8976 7.51345 67.3715 7.66793 67.7627 7.97691C68.1539 8.28588 68.4011 8.54688 68.5041 8.7599C68.0716 9.16339 67.4793 9.65731 66.727 10.2417C65.9748 10.826 65.2069 11.4087 64.4232 11.9897C63.6403 12.5741 62.8979 13.116 62.1958 13.6154C61.4938 14.1149 60.9889 14.4812 60.6812 14.7144C62.3965 16.0258 63.9992 17.4878 65.4714 19.0841C66.9136 20.653 68.1291 22.1415 69.118 23.5496H64.7301C64.2563 22.9513 63.7259 22.3276 63.139 21.6785C62.552 21.0294 61.9235 20.3889 61.2534 19.757C60.5838 19.1276 59.904 18.519 59.214 17.9312C58.524 17.3435 57.8595 16.8045 57.2205 16.3142V23.5496H53.7V1.69356Z" fill="black"/>
<path d="M70.0224 19.5558C70.2675 19.7176 70.526 19.8566 70.7949 19.971C71.2442 20.1716 71.7033 20.3477 72.1703 20.4986C72.7828 20.6958 73.4074 20.8504 74.0399 20.9613C74.7954 21.0943 75.5607 21.1586 76.3271 21.1534C77.3985 21.1534 78.2741 21.0095 78.954 20.7216C79.6337 20.4338 79.9743 19.9387 79.9757 19.2363C79.9757 18.6394 79.7595 18.1868 79.327 17.8783C78.8945 17.5698 78.1219 17.3515 77.0092 17.2234L74.5988 16.9355C73.8282 16.8613 73.067 16.706 72.327 16.4721C71.6888 16.2754 71.0878 15.9676 70.5499 15.5617C70.0627 15.1865 69.6661 14.6998 69.391 14.1396C69.1126 13.5754 68.9734 12.8992 68.9734 12.1109C68.97 11.4455 69.1015 10.7867 69.3597 10.1772C69.6353 9.54631 70.0535 8.99318 70.5792 8.56443C71.136 8.09569 71.8622 7.72819 72.7578 7.46191C73.6533 7.19564 74.7401 7.0625 76.018 7.0625C78.1604 7.0625 79.8242 7.30766 81.0093 7.79799C82.1944 8.28832 82.7856 8.92762 82.7828 9.71589C82.7878 9.94765 82.7402 10.1774 82.6436 10.3866C82.5576 10.5673 82.454 10.7385 82.3346 10.8976C82.2322 11.0358 82.1126 11.1595 81.9789 11.2653C81.8946 11.3372 81.8008 11.3963 81.7005 11.4409C81.5322 11.2912 81.3512 11.1575 81.1596 11.0415C80.802 10.822 80.424 10.64 80.0314 10.4982C79.4772 10.2947 78.909 10.1344 78.3317 10.0189C77.5778 9.87186 76.8116 9.80244 76.0445 9.8116C73.6543 9.8116 72.4595 10.4612 72.4598 11.7604C72.4598 12.3146 72.6866 12.7353 73.1399 13.0227C73.5933 13.3101 74.2429 13.5071 75.0888 13.6136L78.2412 14.0295C79.9506 14.2641 81.2794 14.7487 82.2274 15.4832C83.1754 16.2178 83.6494 17.2987 83.6494 18.726C83.6494 20.3237 83.0365 21.6018 81.8104 22.5604C80.5845 23.519 78.8177 23.9987 76.5101 23.9997C75.4953 24.0083 74.4817 23.9228 73.4817 23.7442C72.6811 23.6011 71.8906 23.4037 71.1152 23.1534C70.5596 22.9763 70.0173 22.7575 69.4927 22.4985C69.0802 22.2855 68.8122 22.1257 68.6888 22.0192L70.0224 19.5558Z" fill="black"/>
<path d="M92.6375 7.06178C93.7842 7.05306 94.922 7.26993 95.9904 7.70084C96.9946 8.10418 97.9133 8.70682 98.6947 9.4748C99.4598 10.2359 100.069 11.1486 100.487 12.1584C100.915 13.2214 101.136 14.3617 101.136 15.5135C101.136 16.6652 100.915 17.8055 100.487 18.8685C100.069 19.8787 99.4598 20.7916 98.6947 21.5529C97.9123 22.3226 96.9946 22.9299 95.9904 23.3419C93.8346 24.2149 91.4397 24.2149 89.284 23.3419C88.2802 22.9302 87.3621 22.3228 86.5799 21.5529C85.8142 20.7916 85.2046 19.8787 84.7877 18.8685C84.3593 17.8054 84.1387 16.6651 84.1387 15.5135C84.1387 14.3618 84.3593 13.2215 84.7877 12.1584C85.2051 11.1487 85.8146 10.2361 86.5799 9.4748C87.3605 8.70642 88.2792 8.10373 89.284 7.70084C90.3526 7.26986 91.4906 7.05299 92.6375 7.06178ZM92.6375 20.7699C93.3068 20.7767 93.9703 20.6408 94.5865 20.3704C95.1686 20.1157 95.6909 19.7342 96.1181 19.2521C96.5443 18.7663 96.8794 18.2028 97.1059 17.5904C97.3478 16.9324 97.4688 16.2333 97.4621 15.5293C97.4669 14.8152 97.3459 14.1061 97.1059 13.4365C96.8861 12.8159 96.5501 12.246 96.1181 11.759C95.687 11.2855 95.1655 10.91 94.5865 10.6565C93.3341 10.124 91.9291 10.124 90.6768 10.6565C90.1043 10.9124 89.5888 11.2877 89.1629 11.759C88.7299 12.2456 88.3939 12.8157 88.1739 13.4365C87.9331 14.1059 87.8126 14.8151 87.8182 15.5293C87.8107 16.2333 87.9313 16.9325 88.1739 17.5904C88.4009 18.203 88.7364 18.7665 89.1629 19.2521C89.5853 19.7315 90.1013 20.1127 90.6768 20.3704C91.2964 20.6432 91.9643 20.7792 92.6375 20.7699Z" fill="black"/>
<path d="M102.449 13.2294C102.449 12.207 102.624 11.3122 102.974 10.545C103.307 9.80151 103.798 9.14589 104.412 8.62787C105.049 8.10053 105.778 7.70451 106.559 7.4613C107.431 7.18824 108.337 7.05357 109.248 7.06189C110.526 7.06189 111.669 7.30705 112.679 7.79738C113.667 8.26831 114.503 9.02234 115.089 9.97003C115.668 9.02816 116.493 8.27492 117.468 7.79738C118.457 7.30705 119.58 7.06189 120.837 7.06189C121.737 7.05485 122.632 7.18408 123.495 7.44546C124.274 7.67687 124.999 8.06853 125.628 8.59692C126.232 9.11922 126.718 9.77404 127.049 10.5141C127.4 11.2817 127.574 12.1763 127.574 13.1977V23.55H124.051V14.4434C124.051 12.9729 123.732 11.9237 123.093 11.2956C122.454 10.6676 121.589 10.3536 120.497 10.3536C119.446 10.3536 118.565 10.705 117.852 11.4079C117.14 12.1108 116.786 13.25 116.789 14.8256V23.55H113.266V14.8256C113.266 13.2486 112.91 12.1089 112.199 11.4065C111.489 10.7041 110.606 10.3527 109.554 10.3522C108.483 10.3522 107.618 10.6717 106.958 11.3108C106.3 11.9498 105.97 13.0053 105.97 14.4773V23.5522H102.446L102.449 13.2294Z" fill="black"/>
<path d="M143.411 22.3673C143.244 22.4738 142.988 22.6227 142.638 22.8149C142.216 23.036 141.777 23.2176 141.324 23.3575C140.726 23.5462 140.117 23.6957 139.5 23.8051C138.751 23.9382 137.99 24.0023 137.23 23.9966C136.131 24.0059 135.039 23.8224 134 23.4539C133.026 23.108 132.132 22.5585 131.373 21.8397C130.608 21.107 130.002 20.214 129.596 19.2202C129.163 18.1867 128.947 16.9991 128.947 15.6571C128.947 14.379 129.158 13.2127 129.581 12.1582C129.98 11.1371 130.58 10.2125 131.341 9.44216C132.105 8.67875 133.008 8.08119 133.999 7.68475C135.019 7.26926 136.137 7.06152 137.351 7.06152C138.423 7.06152 139.371 7.20546 140.195 7.49332C141.019 7.78118 141.715 8.165 142.283 8.64478C142.824 9.08977 143.259 9.65633 143.556 10.3014C143.853 10.9465 144.005 11.6531 143.998 12.3676C144.008 13.0659 143.87 13.7581 143.597 14.3963C143.328 15.0037 142.855 15.5257 142.175 15.9623C141.495 16.3989 140.579 16.7395 139.424 16.9842C138.27 17.2289 136.808 17.3512 135.038 17.3512C134.627 17.3512 134.241 17.3459 133.88 17.3354C133.519 17.3248 133.133 17.3088 132.721 17.2872C132.794 17.8098 132.967 18.3121 133.23 18.7647C133.493 19.2174 133.84 19.6112 134.252 19.9233C135.107 20.595 136.328 20.9308 137.915 20.9308C138.412 20.9342 138.908 20.8913 139.398 20.8027C139.812 20.728 140.22 20.6212 140.619 20.4832C140.935 20.3737 141.244 20.2458 141.546 20.1003C141.803 19.9722 141.994 19.8763 142.117 19.8125L143.411 22.3673ZM132.563 14.7943C133.037 14.8159 133.49 14.8267 133.923 14.8267H135.221C136.353 14.8267 137.269 14.752 137.971 14.6028C138.672 14.4536 139.218 14.2617 139.609 14.0271C140.001 13.7925 140.258 13.5262 140.382 13.2283C140.505 12.9356 140.567 12.6202 140.567 12.3014C140.567 11.492 140.253 10.8848 139.624 10.4799C138.996 10.075 138.219 9.87276 137.292 9.87323C136.528 9.87323 135.859 10.0116 135.283 10.2885C134.729 10.5469 134.235 10.9225 133.83 11.391C133.434 11.8561 133.125 12.3929 132.919 12.9742C132.705 13.5569 132.585 14.1716 132.563 14.7943Z" fill="black"/>
<path d="M30.1651 15.5611C30.1632 15.2318 30.2263 14.9057 30.3503 14.6025C30.4701 14.3093 30.6433 14.0428 30.8605 13.8173C31.0817 13.5903 31.3443 13.411 31.6331 13.2898C31.931 13.1624 32.2503 13.0971 32.5727 13.0977C33.2021 13.0961 33.8062 13.353 34.2524 13.8118C34.6987 14.2706 34.9504 14.8938 34.9525 15.5445V15.556C34.9537 15.8903 34.8907 16.2215 34.7674 16.5304C34.6501 16.829 34.4767 17.1005 34.2571 17.3293C34.0377 17.5551 33.7813 17.739 33.4999 17.8726C33.2097 18.0131 32.8932 18.0856 32.5727 18.0849C32.2546 18.0883 31.9392 18.0234 31.6467 17.8942C31.3541 17.765 31.0907 17.5743 30.873 17.3343C30.6456 17.1033 30.4656 16.8271 30.344 16.5224C30.2223 16.2177 30.1616 15.8907 30.1651 15.5611Z" fill="black"/>
</g>
<defs>
<clipPath id="clip0_413_1527">
<rect width="144" height="24" fill="white"/>
</clipPath>
</defs>
</svg>
