<svg width="149" height="15" viewBox="0 0 149 15" fill="none" xmlns="http://www.w3.org/2000/svg">
<g clip-path="url(#clip0_413_1554)">
<path d="M88.9025 2.59464V0.000385284H77.4202L74.3019 2.59464V6.15703L77.4202 8.75129H87.4272V12.408H74.9221V14.9996H86.7147L89.8332 12.408V8.75129L86.7147 6.15703H76.7075V2.59464H88.9025Z" fill="black"/>
<path d="M28.799 0.000385284H26.6085L18.5742 14.9996H21.3523L27.7088 3.13669L34.0577 14.9996H36.8334L28.799 0.000385284Z" fill="black"/>
<path d="M52.682 0.000385284H37.151V2.59464H43.715V14.9996H46.118V2.59464H52.682V0.000385284Z" fill="black"/>
<path d="M109.223 0.000385284H93.6941V2.59464H100.255V14.9996H102.661V2.59464H109.223V0.000385284Z" fill="black"/>
<path d="M12.4128 0.000823975H0V15H12.4128L15.531 12.4058V2.59508L12.4128 0.000823975ZM2.40555 2.59508H13.1255V12.4084H2.40555V2.59508Z" fill="black"/>
<path d="M137.629 7.5L136.239 4.90574V4.90844L133.611 0.000385284H130.833L134.851 7.5L130.833 14.9996H133.611L136.239 10.0942L137.629 7.5Z" fill="black"/>
<path d="M141.58 7.5L142.97 4.90574V4.90844L145.601 0.000385284H148.376L144.361 7.5L148.376 14.9996H145.601L142.97 10.0942L141.58 7.5Z" fill="black"/>
<path d="M61.0339 0.000385284H63.2244L71.2587 14.9996H68.4806L62.1241 3.13669L55.7752 14.9996H52.9995L61.0339 0.000385284Z" fill="black"/>
<path d="M117.574 0.000385284H119.765L127.799 14.9996H125.023L118.664 3.13669L112.318 14.9996H109.54L117.574 0.000385284Z" fill="black"/>
</g>
<defs>
<clipPath id="clip0_413_1554">
<rect width="149" height="15" fill="white"/>
</clipPath>
</defs>
</svg>
