<svg width="140" height="24" viewBox="0 0 140 24" fill="none" xmlns="http://www.w3.org/2000/svg">
<g clip-path="url(#clip0_413_1540)">
<path d="M23.2686 9.67812C25.9144 6.94225 26.7858 3.39042 25.2151 1.7449C23.6444 0.0993816 20.2262 0.983287 17.5805 3.71916C14.9347 6.45503 14.0633 10.0069 15.634 11.6524C17.2048 13.2979 20.6229 12.414 23.2686 9.67812Z" fill="black"/>
<path d="M22.3946 22.137C23.5802 20.8939 22.9974 18.2911 21.093 16.3235C19.1885 14.3558 16.6836 13.7684 15.498 15.0115C14.3125 16.2545 14.8952 18.8573 16.7997 20.825C18.7041 22.7927 21.2091 23.3801 22.3946 22.137Z" fill="black"/>
<path d="M12.1246 11.6455C13.6953 10 12.8239 6.44818 10.1781 3.7123C7.53238 0.976429 4.11425 0.0925244 2.54351 1.73805C0.972768 3.38357 1.84423 6.93539 4.48997 9.67126C7.13571 12.4071 10.5538 13.291 12.1246 11.6455Z" fill="black"/>
<path d="M11.0459 20.8286C12.9503 18.8609 13.5331 16.2581 12.3475 15.015C11.162 13.772 8.65701 14.3594 6.75257 16.327C4.84812 18.2947 4.26535 20.8975 5.45091 22.1405C6.63648 23.3836 9.14143 22.7962 11.0459 20.8286Z" fill="black"/>
<path d="M46.2823 21.6857C46.2823 22.4571 45.7059 23.0571 44.8823 23.0571C44.4706 23.0571 44.1412 22.8857 43.8941 22.6286L38.2117 16.2L36.2353 18.1714V21.4286C36.2353 22.2857 35.5765 23.0571 34.6706 23.0571C33.847 23.0571 33.1059 22.3714 33.1059 21.4286V3.08571C33.1059 2.22857 33.7647 1.45714 34.6706 1.45714C35.4941 1.45714 36.2353 2.14286 36.2353 3.08571V14.4857L42.7412 7.71428C42.9882 7.45714 43.4 7.28571 43.8117 7.28571C44.5529 7.28571 45.2117 7.97143 45.2117 8.74286C45.2117 9.17143 45.047 9.51428 44.8 9.77143L40.1882 14.4L45.9529 20.7429C46.1176 20.9143 46.2823 21.3429 46.2823 21.6857Z" fill="black"/>
<path d="M48.7529 2.74286C48.7529 1.88571 49.4941 1.11428 50.3176 1.11428C51.1412 1.11428 51.8823 1.88571 51.8823 2.74286C51.8823 3.6 51.1412 4.37143 50.3176 4.37143C49.4941 4.37143 48.7529 3.6 48.7529 2.74286ZM51.8823 8.82857V21.5143C51.8823 22.4571 51.2235 23.1429 50.3176 23.1429C49.4941 23.1429 48.7529 22.4571 48.7529 21.5143V8.82857C48.7529 7.88571 49.4118 7.2 50.3176 7.2C51.1412 7.2 51.8823 7.88571 51.8823 8.82857Z" fill="black"/>
<path d="M65.1411 9.42857C65.3059 9.68571 65.5529 10.0286 65.5529 10.5429C65.5529 11.3143 64.9764 11.7429 64.3176 11.7429C63.8235 11.7429 63.4117 11.5714 63 10.9714C62.4235 10.2 61.6 9.68571 60.447 9.68571C58.9647 9.68571 58.1411 10.4571 58.1411 11.4857C58.1411 12.2571 58.5529 12.9429 60.1176 13.3714L61.9294 13.8857C64.4 14.5714 66.2117 15.6857 66.2117 18.2571C66.2117 21.4286 63.3294 22.9714 60.3647 22.9714C57.8117 22.9714 56.0823 21.8571 55.3411 20.5714C55.1764 20.4 54.7647 19.8 54.7647 19.0286C54.7647 18.4286 55.1764 17.7429 55.9176 17.7429C56.5764 17.7429 56.9059 18.1714 57.2353 18.6C57.9764 19.8857 59.1294 20.3143 60.3647 20.3143C62.0117 20.3143 63.1647 19.6286 63.1647 18.4286C63.1647 17.4857 62.5882 16.8857 61.1059 16.4571L59.1294 15.9429C56.3294 15.1714 55.0941 13.5429 55.0941 11.4857C55.0941 8.65714 57.5647 7.02857 60.3647 7.02857C62.4235 7.11428 64.2353 7.97143 65.1411 9.42857Z" fill="black"/>
<path d="M78.647 9.42857C78.8117 9.68571 79.0588 10.0286 79.0588 10.5429C79.0588 11.3143 78.4823 11.7429 77.8235 11.7429C77.3294 11.7429 76.9176 11.5714 76.5059 10.9714C75.9294 10.2 75.1059 9.68571 73.9529 9.68571C72.4706 9.68571 71.647 10.4571 71.647 11.4857C71.647 12.2571 72.0588 12.9429 73.6235 13.3714L75.4353 13.8857C77.9059 14.5714 79.7176 15.6857 79.7176 18.2571C79.7176 21.4286 76.8353 22.9714 73.8706 22.9714C71.3176 22.9714 69.5882 21.8571 68.847 20.5714C68.6823 20.4 68.2706 19.8 68.2706 19.0286C68.2706 18.4286 68.6823 17.7429 69.4235 17.7429C70.0823 17.7429 70.4117 18.1714 70.7412 18.6C71.4823 19.8857 72.6353 20.3143 73.8706 20.3143C75.5176 20.3143 76.6706 19.6286 76.6706 18.4286C76.6706 17.4857 76.0941 16.8857 74.6117 16.4571L72.6353 15.9429C69.8353 15.1714 68.6 13.5429 68.6 11.4857C68.6 8.65714 71.0706 7.02857 73.8706 7.02857C75.9294 7.11428 77.7412 7.97143 78.647 9.42857Z" fill="black"/>
<path d="M92.1529 3.25714C92.1529 3.94286 91.6588 4.45714 91 4.45714C90.7529 4.45714 90.3412 4.37143 89.9294 4.2C89.5176 4.02857 89.1882 3.85714 88.5294 3.85714C86.8823 3.85714 86.3882 5.14286 86.3882 6.34286V7.37143H89.2706C90.0117 7.37143 90.5059 7.88571 90.5059 8.65714C90.5059 9.42857 90.0117 9.94286 89.2706 9.94286H86.4706V21.6C86.4706 22.4571 85.8117 23.2286 84.9882 23.2286C84.1647 23.2286 83.4235 22.5429 83.4235 21.6V9.85714H82.4353C81.6941 9.85714 81.2 9.34286 81.2 8.57143C81.2 7.8 81.6941 7.28571 82.4353 7.28571H83.4235V6.17143C83.4235 2.05714 86.3059 1.11428 88.2 1.11428C89.5176 1.11428 90.5882 1.45714 91.4117 2.05714C91.9059 2.31428 92.2353 2.74286 92.1529 3.25714ZM96.7647 3.08571V21.5143C96.7647 22.3714 96.1059 23.1429 95.2 23.1429C94.2941 23.1429 93.6353 22.4571 93.6353 21.5143V3.08571C93.6353 2.22857 94.2941 1.45714 95.2 1.45714C96.0235 1.45714 96.7647 2.14286 96.7647 3.08571Z" fill="black"/>
<path d="M114.882 15.1714C114.882 20.5714 110.6 23.1429 107.224 23.1429C103.929 23.1429 99.647 20.4857 99.647 15.1714C99.647 9.85714 103.929 7.11428 107.224 7.11428C110.518 7.11428 114.882 9.77143 114.882 15.1714ZM102.694 15.1714C102.694 18.6 105 20.4 107.224 20.4C109.447 20.4 111.835 18.6 111.835 15.1714C111.835 11.7429 109.529 9.94286 107.224 9.94286C105 9.85714 102.694 11.7429 102.694 15.1714Z" fill="black"/>
<path d="M138.271 8.74286C138.271 9 138.188 9.17143 138.106 9.42857L134.071 21.7714C133.824 22.5429 133.247 22.9714 132.588 22.9714C131.929 22.9714 131.435 22.5429 131.106 21.7714L127.235 11.8286L123.282 21.7714C123.035 22.5429 122.459 22.9714 121.8 22.9714C121.141 22.9714 120.647 22.5429 120.318 21.7714L116.2 9.42857C116.118 9.17143 116.035 8.91428 116.035 8.74286C116.035 7.88571 116.694 7.2 117.518 7.2C118.094 7.2 118.671 7.54286 118.835 8.05714L122.047 18.2571L125.835 8.14286C126.082 7.54286 126.576 7.11428 127.235 7.11428C127.894 7.11428 128.388 7.45714 128.635 8.14286L132.424 18.2571L135.635 8.05714C135.8 7.54286 136.376 7.2 136.953 7.2C137.612 7.2 138.271 7.88571 138.271 8.74286Z" fill="black"/>
</g>
<defs>
<clipPath id="clip0_413_1540">
<rect width="140" height="24" fill="white"/>
</clipPath>
</defs>
</svg>
