<svg width="172" height="24" viewBox="0 0 172 24" fill="none" xmlns="http://www.w3.org/2000/svg">
<g clip-path="url(#clip0_427_963)">
<path d="M12.6438 -0.0917816C6.22315 -0.0917816 0.994652 5.33486 0.994652 12C0.994652 18.6651 6.22315 24.0918 12.6438 24.0918C19.0655 24.0918 24.294 18.6651 24.294 12C24.294 5.33486 19.0655 -0.0917816 12.6438 -0.0917816ZM12.6438 22.3226C7.16006 22.3226 2.69933 17.6925 2.69933 12C2.69933 6.30751 7.16006 1.67736 12.6438 1.67736C18.1286 1.67736 22.5893 6.30751 22.5893 12C22.5893 17.6925 18.1286 22.3226 12.6438 22.3226Z" fill="#696969"/>
<path d="M13.0702 9.19806V4.80316C10.7122 4.80316 8.80803 6.78013 8.80803 9.19806V17.9868C11.167 17.9868 13.0986 16.0109 13.0986 13.593V17.9868C15.4576 17.9868 17.3892 16.0109 17.3892 13.593C17.3608 11.174 15.4292 9.19806 13.0702 9.19806ZM168.439 8.46066L165.825 16.2767L162.955 8.4902H160.086L164.575 19.1082L164.234 20.1104C164.007 20.7592 163.751 21.2318 163.524 21.4966C163.296 21.7625 162.955 21.9101 162.557 21.9101C162.216 21.9101 161.819 21.8511 161.364 21.7034L160.938 23.7679C161.591 24.0032 162.274 24.1213 162.984 24.1213C163.637 24.1213 164.177 23.9747 164.575 23.7088C165.001 23.443 165.342 23.0305 165.655 22.4703C165.967 21.9397 166.308 21.2318 166.621 20.3467L171.195 8.4902H168.439V8.46066ZM157.13 9.75824C156.676 9.13899 156.192 8.7265 155.624 8.4902C155.084 8.25389 154.488 8.13679 153.891 8.13679C152.925 8.13679 152.101 8.37204 151.39 8.84466C150.709 9.31622 150.169 9.96501 149.799 10.791C149.43 11.6466 149.231 12.6193 149.231 13.7691C149.231 14.861 149.402 15.8041 149.714 16.6597C150.055 17.4857 150.539 18.1345 151.22 18.6061C151.902 19.0787 152.726 19.3139 153.721 19.3139C154.459 19.3139 155.084 19.1673 155.653 18.8719C156.192 18.5765 156.676 18.1345 157.074 17.6039V18.6947C157.074 19.8161 156.904 20.6411 156.534 21.2023C156.164 21.7625 155.511 22.0272 154.573 22.0272C153.834 22.0272 153.266 21.9102 152.897 21.6443C152.527 21.408 152.3 20.9955 152.187 20.4058H149.657C149.771 21.6738 150.254 22.5885 151.078 23.1487C151.93 23.7384 153.096 24.0327 154.573 24.0327C155.88 24.0327 156.904 23.7974 157.614 23.2964C158.352 22.8237 158.863 22.1454 159.176 21.2318C159.488 20.3172 159.66 19.2549 159.66 17.9868V8.46066H157.102V9.75824H157.13ZM157.102 13.9168C157.102 14.8315 156.875 15.5984 156.449 16.1881C156.022 16.7778 155.369 17.1028 154.459 17.1028C154.005 17.1028 153.607 16.9846 153.21 16.7778C152.84 16.5415 152.527 16.1881 152.3 15.7166C152.073 15.2144 151.959 14.5656 151.959 13.7396C151.959 12.5602 152.215 11.6751 152.698 11.1444C153.21 10.6138 153.806 10.3184 154.573 10.3184C155.454 10.3184 156.107 10.6138 156.534 11.2331C156.96 11.8523 157.159 12.6193 157.159 13.593V13.9168H157.102ZM143.066 8.13679C141.957 8.13679 140.991 8.37204 140.196 8.87419C139.4 9.34576 138.775 10.0241 138.32 10.9092C137.865 11.7932 137.667 12.8556 137.667 14.0941C137.667 15.9518 138.122 17.4266 139.059 18.4594C139.996 19.4912 141.332 20.0218 143.009 20.0218C144.685 20.0218 146.02 19.4912 146.958 18.4299C147.924 17.338 148.407 15.8927 148.407 14.0054C148.407 12.1772 147.924 10.732 146.986 9.69916C146.077 8.63789 144.742 8.13679 143.066 8.13679ZM145.083 16.7778C144.657 17.4562 143.975 17.8106 143.037 17.8106C142.099 17.8106 141.418 17.4562 140.991 16.7778C140.565 16.0995 140.366 15.1849 140.366 14.035C140.366 12.9146 140.593 12 141.019 11.3217C141.446 10.6433 142.128 10.3184 143.066 10.3184C144.003 10.3184 144.685 10.6433 145.112 11.3217C145.537 12 145.765 12.9146 145.765 14.035C145.708 15.1849 145.509 16.0995 145.083 16.7778ZM133.831 4.30206H136.445V19.6684H133.831V4.30206ZM127.268 8.13679C126.158 8.13679 125.193 8.37204 124.397 8.87419C123.602 9.34576 122.977 10.0241 122.522 10.9092C122.067 11.7932 121.868 12.8556 121.868 14.0941C121.868 15.9518 122.323 17.4266 123.261 18.4594C124.199 19.4912 125.534 20.0218 127.21 20.0218C128.887 20.0218 130.222 19.4912 131.16 18.4299C132.126 17.338 132.609 15.8927 132.609 14.0054C132.609 12.1772 132.126 10.732 131.188 9.69916C130.279 8.63789 128.972 8.13679 127.268 8.13679ZM129.284 16.7778C128.858 17.4562 128.176 17.8106 127.238 17.8106C126.301 17.8106 125.619 17.4562 125.193 16.7778C124.767 16.0995 124.568 15.1849 124.568 14.035C124.568 12.9146 124.795 12 125.222 11.3217C125.648 10.6433 126.33 10.3184 127.268 10.3184C128.205 10.3184 128.887 10.6433 129.313 11.3217C129.739 12 129.967 12.9146 129.967 14.035C129.938 15.1849 129.711 16.0995 129.284 16.7778ZM117.18 8.13679C116.555 8.13679 115.929 8.28343 115.333 8.57881C114.736 8.84466 114.168 9.34576 113.628 10.0536V8.4902H111.071V19.6979H113.685V13.0908C113.685 12.6193 113.742 12.2658 113.884 12C114.026 11.7046 114.225 11.4398 114.481 11.2035C114.736 10.9387 115.021 10.732 115.361 10.6138C115.703 10.4956 116.044 10.407 116.384 10.407C116.981 10.407 117.436 10.5843 117.72 10.9387C118.032 11.2921 118.175 11.8818 118.175 12.7079V19.6979H120.788V12.1772C120.788 10.8796 120.476 9.87639 119.88 9.19806C119.255 8.49019 118.373 8.13679 117.18 8.13679ZM106.042 8.13679C105.417 8.13679 104.82 8.28343 104.224 8.54927C103.655 8.81512 103.087 9.25714 102.547 9.93547V4.30206H99.933V19.6684H102.547V13.0908C102.547 12.6193 102.604 12.2658 102.746 12C102.888 11.7046 103.087 11.4398 103.342 11.2035C103.599 10.9387 103.882 10.732 104.224 10.6138C104.564 10.4956 104.905 10.407 105.247 10.407C105.843 10.407 106.298 10.5843 106.582 10.9387C106.894 11.2921 107.036 11.8818 107.036 12.7079V19.6979H109.651V12.1772C109.651 10.8796 109.338 9.87639 108.741 9.19806C108.116 8.49019 107.235 8.13679 106.042 8.13679ZM95.6991 17.2494C95.3578 17.6334 94.8463 17.8391 94.1362 17.8391C93.1983 17.8391 92.545 17.4857 92.1469 16.7778C91.7499 16.07 91.5787 15.1553 91.5787 14.0645C91.5787 12.9737 91.7782 12.0886 92.1469 11.3807C92.545 10.6729 93.1983 10.3184 94.1362 10.3184C94.8179 10.3184 95.3011 10.4956 95.614 10.8796C95.926 11.2626 96.1539 11.7637 96.2673 12.3829L98.7681 12.0295C98.597 10.791 98.1138 9.84685 97.3471 9.13899C96.5793 8.46066 95.5289 8.10725 94.1646 8.10725C93.0849 8.10725 92.1186 8.3425 91.3518 8.84466C90.5557 9.34576 89.9591 10.0241 89.5327 10.9387C89.1073 11.8228 88.8794 12.8851 88.8794 14.0941C88.8794 15.9223 89.3342 17.3676 90.2154 18.4299C91.1239 19.4912 92.4032 19.9923 94.0795 19.9923C95.5289 19.9923 96.637 19.6093 97.4322 18.8424C98.2566 18.0754 98.7398 16.9846 98.9099 15.628H96.3808C96.2957 16.3358 96.0688 16.8369 95.6991 17.2494ZM85.8964 8.84466C85.157 8.37204 84.2485 8.13679 83.111 8.13679C82.089 8.13679 81.1511 8.37204 80.3833 8.84466C79.5882 9.31622 78.9916 9.99455 78.5368 10.8796C78.0821 11.7637 77.8835 12.8556 77.8835 14.1531C77.8835 16.0109 78.3383 17.4562 79.2469 18.489C80.1564 19.5207 81.4631 20.0218 83.1404 20.0218C84.5888 20.0218 85.6969 19.6979 86.493 19.0491C87.2881 18.4003 87.7713 17.5153 87.9414 16.3654H85.4984C85.3849 16.896 85.1287 17.2789 84.76 17.5743C84.3903 17.8687 83.8504 18.0163 83.111 18.0163C82.2592 18.0163 81.6342 17.7516 81.1795 17.1903C80.7247 16.6302 80.4978 15.8041 80.44 14.7429H88.0843V13.7396C88.0843 12.6488 87.9131 11.6751 87.5444 10.8206C87.1747 9.93547 86.6348 9.28668 85.8964 8.84466ZM80.4411 13.0033C80.5261 12.1182 80.7814 11.4103 81.1795 10.8796C81.5775 10.348 82.2025 10.0536 83.111 10.0536C84.0206 10.0536 84.6455 10.3184 84.9869 10.8206C85.3282 11.3217 85.5267 12.0591 85.5551 13.0033H80.4411ZM79.02 4.30206H66.8867V6.80967H71.5753V19.6684H74.3314V6.80967H79.02V4.30206ZM62.4259 14.2418C61.8577 13.7111 60.8914 13.3271 59.5564 13.0613L58.1354 12.7965C57.4537 12.6783 56.9989 12.5306 56.772 12.2954C56.5441 12.0591 56.4307 11.7637 56.4307 11.3807C56.4307 11.0263 56.5725 10.7024 56.8855 10.4366C57.1974 10.1718 57.7373 10.0241 58.5051 10.0241C59.2151 10.0241 59.7266 10.1718 60.0112 10.4366C60.3232 10.7024 60.5511 11.0854 60.6929 11.5875L63.1076 11.2626C62.9942 10.6433 62.7389 10.0832 62.3976 9.61055C62.0562 9.13899 61.5731 8.78558 60.9481 8.51973C60.3232 8.25389 59.4997 8.10725 58.4767 8.10725C57.1407 8.10725 56.0326 8.40158 55.2092 9.02083C54.3847 9.61055 53.9582 10.4366 53.9582 11.4989C53.9582 12.5306 54.2712 13.2976 54.9245 13.7987C55.5778 14.3008 56.5441 14.6542 57.8518 14.8905L59.1017 15.0963C59.755 15.1849 60.1814 15.3621 60.3799 15.628C60.5795 15.8927 60.6929 16.1881 60.6929 16.5711C60.6929 17.0142 60.5217 17.338 60.2098 17.6039C59.8968 17.8687 59.3569 17.9868 58.6469 17.9868C57.9368 17.9868 57.3686 17.8687 56.9422 17.6039C56.5441 17.338 56.2889 16.896 56.1744 16.2767H53.6746C53.7597 17.6039 54.2429 18.547 55.1808 19.1378C56.0894 19.6979 57.2542 19.9923 58.6752 19.9923C60.2098 19.9923 61.3462 19.6684 62.0846 19.0491C62.8524 18.4299 63.2504 17.5743 63.2504 16.5415C63.2504 15.5393 62.9942 14.7724 62.4259 14.2418Z" fill="#696969"/>
<path d="M52.8502 17.6334C52.6516 17.663 52.3954 17.6925 52.1401 17.6925C51.6853 17.6925 51.344 17.5448 51.1171 17.2494C50.8902 16.9551 50.7758 16.5711 50.7758 16.07V10.6138H53.4467V8.49021H50.7758V5.45302H48.1625V8.46067H46.4568V10.5843H48.1625V15.7746C48.1625 16.6302 48.2476 17.3676 48.4461 17.9868C48.6447 18.5765 48.986 19.0492 49.4692 19.373C49.9523 19.6979 50.634 19.8456 51.4868 19.8456C51.97 19.8456 52.367 19.8161 52.7367 19.7275C53.1064 19.6684 53.4751 19.5502 53.8164 19.4616L53.4184 17.4266C53.2482 17.5153 53.0497 17.5743 52.8502 17.6334ZM43.2744 8.46067H45.8886V19.6684H43.2744V8.46067ZM43.246 4.243H45.8886V6.66199H43.246V4.243ZM39.7516 11.5284C40.4616 11.1444 40.9731 10.7024 41.2861 10.1422C41.5981 9.58207 41.7692 8.93223 41.7692 8.22541C41.7692 7.45847 41.5981 6.78014 41.2861 6.18937C40.9731 5.59966 40.4332 5.1281 39.6665 4.80317C38.8987 4.44977 37.8473 4.27254 36.5407 4.27254H31.0003V19.6389H36.7393C38.0469 19.6389 39.0699 19.4616 39.865 19.0787C40.6611 18.6947 41.2577 18.1641 41.6264 17.4857C41.9961 16.8074 42.1946 16.0404 42.1946 15.1553C42.1946 14.3895 42.0245 13.6816 41.6548 13.0317C41.3144 12.4125 40.6611 11.9114 39.7516 11.5284ZM33.6135 6.51429H36.2561C37.3075 6.51429 38.0185 6.66198 38.4439 6.98585C38.8704 7.28124 39.0983 7.78234 39.0983 8.51974C39.0983 9.19807 38.8987 9.72871 38.4723 10.0832C38.0752 10.4366 37.4219 10.6138 36.484 10.6138H33.6135V6.51429ZM38.8987 16.8369C38.4723 17.2494 37.7055 17.4266 36.5691 17.4266H33.6429V12.7374H36.6542C37.6772 12.7374 38.4156 12.9442 38.842 13.3271C39.2968 13.7396 39.4953 14.3304 39.4953 15.1258C39.4953 15.8632 39.2968 16.454 38.8987 16.8369Z" fill="#696969"/>
</g>
<defs>
<clipPath id="clip0_427_963">
<rect width="172" height="24" fill="white"/>
</clipPath>
</defs>
</svg>
