<svg width="172" height="21" viewBox="0 0 172 21" fill="none" xmlns="http://www.w3.org/2000/svg">
<g clip-path="url(#clip0_428_967)">
<path d="M34.644 16.6253C33.3931 16.6253 32.3123 16.3465 31.4033 15.7906C30.4995 15.2294 29.8002 14.4424 29.3087 13.4365C28.8207 12.4306 28.5785 11.2641 28.5785 9.9353C28.5785 8.60648 28.8207 7.43118 29.3087 6.42353C29.8019 5.41765 30.4995 4.63589 31.4033 4.08C32.3123 3.51883 33.3948 3.23471 34.644 3.23471C36.0822 3.23471 37.2867 3.60353 38.261 4.33765C39.2404 5.06471 39.9311 6.05648 40.3349 7.30236L37.9483 7.98706C37.7197 7.20353 37.3262 6.59471 36.7712 6.16765C36.2214 5.73883 35.5134 5.5253 34.6457 5.5253C33.8536 5.5253 33.1886 5.70706 32.6542 6.07059C32.125 6.42883 31.7298 6.93706 31.4669 7.60059C31.2006 8.25883 31.0717 9.0353 31.0717 9.93353C31.0717 10.8318 31.2023 11.6029 31.4669 12.2665C31.7298 12.9247 32.1267 13.4329 32.6542 13.7965C33.1886 14.16 33.8536 14.3418 34.6457 14.3418C35.5134 14.3418 36.2214 14.1247 36.7712 13.6888C37.3262 13.2547 37.7197 12.6477 37.9483 11.8694L40.3349 12.5541C39.9311 13.8035 39.2404 14.7971 38.261 15.5294C37.2867 16.2565 36.0822 16.6218 34.644 16.6218V16.6253Z" fill="#696969"/>
<path d="M48.6411 16.3588V11.8094C48.6411 11.5906 48.6257 11.3065 48.5999 10.9641C48.5793 10.6218 48.5054 10.2794 48.3817 9.93705C48.2614 9.5894 48.0638 9.29999 47.7871 9.07058C47.5156 8.83587 47.1256 8.71764 46.6204 8.71764C46.4177 8.71764 46.1977 8.7494 45.964 8.81469C45.7355 8.87822 45.519 9.00705 45.318 9.1994C45.1152 9.38646 44.9485 9.65999 44.8179 10.0235C44.6856 10.387 44.6203 10.8688 44.6203 11.4688L43.2646 10.8053C43.2646 10.05 43.4124 9.33881 43.7131 8.67528C44.0172 8.00646 44.4743 7.46646 45.0791 7.05881C45.684 6.64587 46.4469 6.43764 47.3713 6.43764C48.1067 6.43764 48.7047 6.56646 49.1635 6.82234C49.6274 7.07469 49.99 7.39587 50.2477 7.78587C50.5037 8.1794 50.6876 8.58881 50.7993 9.01763C50.9093 9.44646 50.9763 9.83646 50.9969 10.1841C51.0227 10.5353 51.0381 10.7912 51.0381 10.9553V16.3606H48.6411V16.3588ZM42.2216 16.3588V3.50293H44.3265V10.1082H44.6186V16.3588H42.2216Z" fill="#696969"/>
<path d="M55.9009 16.6253C55.2256 16.6253 54.6551 16.4912 54.1912 16.23C53.7255 15.9671 53.3698 15.6141 53.1276 15.1694C52.8904 14.7282 52.7736 14.2359 52.7736 13.6924C52.7736 13.2512 52.8389 12.8471 52.9712 12.4835C53.1018 12.1147 53.3183 11.7847 53.6173 11.4988C53.9145 11.2147 54.3183 10.98 54.8269 10.7929C55.174 10.6588 55.5881 10.5406 56.0675 10.44C56.5469 10.3412 57.0882 10.2441 57.693 10.1506C58.303 10.0588 58.9749 9.95471 59.7051 9.84001L58.8615 10.3218C58.8615 9.75177 58.7257 9.33354 58.4542 9.06883C58.1879 8.79883 57.7463 8.66295 57.1208 8.66295C56.772 8.66295 56.406 8.74942 56.0263 8.92059C55.6517 9.09177 55.3905 9.39883 55.2445 9.84177L53.0966 9.14648C53.3389 8.34883 53.7874 7.69942 54.4403 7.19824C55.0915 6.7006 55.9851 6.44824 57.1191 6.44824C57.9456 6.44824 58.6776 6.58236 59.3185 6.84354C59.9646 7.10824 60.4543 7.56001 60.7877 8.20236C60.9681 8.56059 61.0746 8.91707 61.1107 9.27354C61.1451 9.63177 61.1622 10.0306 61.1622 10.4718V16.3588H59.0986V14.3788L59.3907 14.7847C58.9319 15.4341 58.437 15.9053 57.9113 16.1982C57.382 16.4824 56.7119 16.6271 55.8991 16.6271L55.9009 16.6253ZM56.4009 14.7212C56.839 14.7212 57.2068 14.6435 57.5057 14.4865C57.803 14.3224 58.0401 14.1406 58.2137 13.9412C58.3941 13.7435 58.5161 13.5724 58.5779 13.4277C58.6948 13.17 58.7652 12.8682 58.7859 12.5171C58.8065 12.1694 58.8168 11.88 58.8168 11.6506L59.5144 11.8218C58.8116 11.9453 58.2429 12.0459 57.8047 12.1324C57.3717 12.2118 57.0229 12.2824 56.7514 12.3459C56.4851 12.4094 56.2531 12.4818 56.0538 12.5594C55.8253 12.6529 55.6362 12.7571 55.4902 12.87C55.3493 12.9777 55.2445 13.0994 55.1775 13.2335C55.1156 13.3624 55.083 13.5071 55.083 13.6624C55.083 13.8847 55.1345 14.0753 55.2393 14.2288C55.3441 14.3859 55.4919 14.5077 55.6878 14.5924C55.8888 14.6788 56.126 14.7212 56.3957 14.7212H56.4009Z" fill="#696969"/>
<path d="M63.4286 16.3588V6.71469H65.5129V9.06881L65.2844 8.76881C65.4098 8.43352 65.5713 8.13175 65.7741 7.85822C65.9751 7.58822 66.2243 7.36234 66.525 7.1841C66.7467 7.04293 66.9889 6.93175 67.2553 6.85234C67.5268 6.76587 67.8017 6.71293 68.0886 6.69175C68.3721 6.67058 68.6574 6.67763 68.9426 6.71293V8.98234C68.6763 8.89587 68.3721 8.8694 68.0251 8.89587C67.6831 8.92587 67.3738 9.00881 67.0972 9.14293C66.8188 9.27175 66.5817 9.44822 66.3892 9.66705C66.202 9.88058 66.0559 10.1382 65.9511 10.4382C65.8514 10.7329 65.805 11.0647 65.805 11.4335V16.357H63.4286V16.3588Z" fill="#696969"/>
<path d="M74.6009 20.9082C74.0648 20.9082 73.5579 20.8165 73.0785 20.64C72.5991 20.4688 72.1661 20.2253 71.7864 19.9129C71.4118 19.6059 71.1008 19.2406 70.8585 18.8206L73.0579 17.7282C73.204 18.0124 73.4153 18.2312 73.6937 18.3812C73.9772 18.5312 74.2882 18.6053 74.6215 18.6053C74.9755 18.6053 75.3089 18.5435 75.6216 18.4235C75.9343 18.3 76.1852 18.1182 76.3725 17.8782C76.5598 17.6347 76.6457 17.3347 76.6336 16.9782V14.1847H76.9361V6.71294H78.9997V17.0206C78.9997 17.2553 78.9894 17.4759 78.9688 17.6841C78.9482 17.8976 78.9121 18.1076 78.864 18.3159C78.711 18.9071 78.4293 19.3924 78.0203 19.7718C77.6079 20.1565 77.1079 20.4406 76.5202 20.6276C75.9291 20.8129 75.29 20.9065 74.6026 20.9065L74.6009 20.9082ZM74.393 16.6253C73.5304 16.6253 72.7727 16.4029 72.1214 15.9618C71.4754 15.5118 70.9702 14.9082 70.6094 14.1424C70.2468 13.3712 70.0681 12.5047 70.0681 11.5412C70.0681 10.5776 70.2502 9.68471 70.6197 8.91883C70.9874 8.15647 71.5011 7.55471 72.1627 7.11C72.8294 6.66883 73.6146 6.44647 74.5184 6.44647C75.4223 6.44647 76.1542 6.67059 76.7591 7.12059C77.3691 7.5653 77.833 8.16883 78.1457 8.94C78.4585 9.71118 78.6148 10.5776 78.6148 11.5412C78.6148 12.5047 78.4533 13.3712 78.1354 14.1424C77.8227 14.9082 77.3536 15.5118 76.7282 15.9618C76.1027 16.4029 75.3243 16.6253 74.393 16.6253ZM74.7796 14.4635C75.3054 14.4635 75.7281 14.3435 76.0408 14.1C76.3587 13.86 76.5873 13.5159 76.7282 13.0729C76.8656 12.6318 76.9361 12.12 76.9361 11.5429C76.9361 10.9659 76.8656 10.4453 76.7282 10.0024C76.5873 9.56118 76.3656 9.21883 76.0615 8.9753C75.7539 8.7353 75.3552 8.61177 74.8621 8.61177C74.3329 8.61177 73.8981 8.74588 73.5596 9.00706C73.2263 9.27177 72.9754 9.62824 72.8088 10.0782C72.6472 10.5229 72.5682 11.01 72.5682 11.5447C72.5682 12.0794 72.6438 12.5806 72.7967 13.0218C72.9565 13.4665 73.1954 13.8194 73.5167 14.0824C73.8432 14.34 74.2624 14.4671 74.7779 14.4671L74.7796 14.4635Z" fill="#696969"/>
<path d="M85.7904 16.6253C84.8316 16.6253 83.9827 16.4135 83.2473 15.9935C82.517 15.5647 81.9449 14.9771 81.5273 14.2271C81.1149 13.4771 80.9122 12.6212 80.9122 11.6576C80.9122 10.6094 81.1132 9.69529 81.517 8.91705C81.9191 8.13353 82.4792 7.5247 83.1958 7.09764C83.9106 6.66353 84.7302 6.4447 85.6563 6.4447C86.6409 6.4447 87.4812 6.6847 88.1685 7.16117C88.8558 7.63941 89.3627 8.31176 89.6909 9.17294C90.0242 10.0376 90.1411 11.0523 90.0448 12.2135H87.7097V11.3259C87.7097 10.3412 87.5568 9.63529 87.2509 9.20647C86.9433 8.77235 86.4485 8.55353 85.7612 8.55353C84.9536 8.55353 84.359 8.80764 83.9793 9.31411C83.6047 9.81529 83.4157 10.5565 83.4157 11.5412C83.4157 12.4412 83.603 13.1365 83.9793 13.6288C84.359 14.1159 84.9192 14.3559 85.6581 14.3559C86.122 14.3559 86.5172 14.2535 86.8454 14.0453C87.1787 13.8388 87.4313 13.5388 87.6066 13.1453L89.9727 13.8406C89.6187 14.7176 89.0585 15.4041 88.2939 15.8965C87.5361 16.38 86.7011 16.6235 85.7921 16.6235L85.7904 16.6253ZM82.6854 12.2153V10.4171H88.9073V12.2153H82.6854Z" fill="#696969"/>
<path d="M96.6087 16.6253C95.6756 16.6253 94.8938 16.4029 94.2632 15.9618C93.6378 15.5118 93.1635 14.9082 92.8456 14.1423C92.5329 13.3712 92.3765 12.5047 92.3765 11.5412C92.3765 10.5776 92.5329 9.71116 92.8456 8.93999C93.1635 8.16881 93.6274 7.56528 94.2323 7.12058C94.8423 6.67058 95.5932 6.44646 96.4832 6.44646C97.3733 6.44646 98.162 6.66881 98.8287 7.10999C99.4954 7.55469 100.011 8.15646 100.382 8.91881C100.75 9.68469 100.934 10.5565 100.934 11.5412C100.934 12.5259 100.751 13.3712 100.392 14.1423C100.03 14.9082 99.5229 15.5118 98.8699 15.9618C98.2239 16.4029 97.4678 16.6253 96.6087 16.6253ZM91.9796 16.3588V3.50293H94.3663V9.75352H94.0639V16.3588H91.9796ZM96.2221 14.4635C96.7272 14.4635 97.1448 14.3347 97.473 14.0788C97.7994 13.8159 98.0383 13.4629 98.1929 13.0182C98.3527 12.577 98.4335 12.0847 98.4335 11.5412C98.4335 10.9976 98.3493 10.5194 98.1826 10.0747C98.0211 9.62469 97.7702 9.26999 97.4317 9.00352C97.0984 8.74058 96.6654 8.60822 96.1396 8.60822C95.6447 8.60822 95.2461 8.73175 94.9402 8.97175C94.6326 9.21528 94.411 9.55763 94.2735 9.99881C94.1326 10.4435 94.0656 10.957 94.0656 11.5394C94.0656 12.1218 94.1326 12.6282 94.2735 13.0694C94.411 13.5141 94.6378 13.8565 94.9505 14.0965C95.2684 14.34 95.6928 14.46 96.2221 14.46V14.4635Z" fill="#696969"/>
<path d="M105.453 16.6253C104.777 16.6253 104.207 16.4912 103.743 16.23C103.277 15.9671 102.922 15.6141 102.679 15.1694C102.442 14.7282 102.325 14.2359 102.325 13.6924C102.325 13.2512 102.391 12.8471 102.523 12.4835C102.654 12.1147 102.87 11.7847 103.169 11.4988C103.466 11.2147 103.87 10.98 104.379 10.7929C104.726 10.6588 105.14 10.5406 105.619 10.44C106.099 10.3412 106.64 10.2441 107.245 10.1506C107.855 10.0588 108.527 9.95471 109.257 9.84001L108.413 10.3218C108.413 9.75177 108.278 9.33354 108.006 9.06883C107.74 8.79883 107.298 8.66295 106.673 8.66295C106.324 8.66295 105.958 8.74942 105.578 8.92059C105.204 9.09177 104.942 9.39883 104.796 9.84177L102.648 9.14648C102.891 8.34883 103.339 7.69942 103.992 7.19824C104.643 6.7006 105.537 6.44824 106.671 6.44824C107.497 6.44824 108.229 6.58236 108.87 6.84354C109.516 7.10824 110.006 7.56001 110.339 8.20236C110.52 8.56059 110.626 8.91707 110.663 9.27354C110.697 9.63177 110.714 10.0306 110.714 10.4718V16.3588H108.65V14.3788L108.942 14.7847C108.484 15.4341 107.989 15.9053 107.463 16.1982C106.934 16.4824 106.264 16.6271 105.451 16.6271L105.453 16.6253ZM105.953 14.7212C106.391 14.7212 106.759 14.6435 107.058 14.4865C107.355 14.3224 107.592 14.1406 107.765 13.9412C107.946 13.7435 108.068 13.5724 108.13 13.4277C108.247 13.17 108.317 12.8682 108.338 12.5171C108.358 12.1694 108.369 11.88 108.369 11.6506L109.066 11.8218C108.363 11.9453 107.795 12.0459 107.357 12.1324C106.924 12.2118 106.575 12.2824 106.303 12.3459C106.037 12.4094 105.805 12.4818 105.606 12.5594C105.377 12.6529 105.188 12.7571 105.042 12.87C104.901 12.9777 104.796 13.0994 104.729 13.2335C104.667 13.3624 104.635 13.5071 104.635 13.6624C104.635 13.8847 104.686 14.0753 104.791 14.2288C104.896 14.3859 105.044 14.5077 105.24 14.5924C105.441 14.6788 105.678 14.7212 105.948 14.7212H105.953Z" fill="#696969"/>
<path d="M117.116 16.6253C116.142 16.6253 115.305 16.4029 114.604 15.9618C113.908 15.5118 113.377 14.9082 113.01 14.1424C112.64 13.3712 112.458 12.5047 112.458 11.5412C112.458 10.5776 112.649 9.6953 113.032 8.92941C113.42 8.15824 113.962 7.55471 114.658 7.11C115.359 6.66883 116.19 6.44647 117.149 6.44647C118.254 6.44647 119.182 6.73588 119.933 7.31294C120.684 7.88647 121.163 8.67 121.371 9.66706L119.015 10.3094C118.874 9.80294 118.632 9.40941 118.285 9.13235C117.936 8.85353 117.548 8.71412 117.118 8.71412C116.618 8.71412 116.206 8.83941 115.888 9.08824C115.566 9.33177 115.329 9.66706 115.18 10.0941C115.034 10.5229 114.962 11.0047 114.962 11.5394C114.962 12.3741 115.142 13.0535 115.503 13.5724C115.862 14.0947 116.402 14.3541 117.118 14.3541C117.644 14.3541 118.048 14.2306 118.328 13.98C118.611 13.7312 118.823 13.3747 118.964 12.9088L121.371 13.4224C121.104 14.4494 120.603 15.2418 119.859 15.7994C119.122 16.35 118.207 16.6235 117.118 16.6235L117.116 16.6253Z" fill="#696969"/>
<path d="M123.091 16.3588L123.111 3.50293H125.508V11.3594L128.687 6.71293H131.605L128.218 11.5412L131.835 16.3588H128.761L125.508 11.7123V16.3588H123.091Z" fill="#696969"/>
<path d="M137.426 16.6253C136.502 16.6253 135.667 16.4559 134.925 16.1224C134.179 15.7871 133.569 15.3053 133.09 14.6771C132.61 14.0506 132.308 13.3024 132.182 12.4288L134.653 12.0547C134.825 12.7906 135.184 13.3588 135.727 13.7559C136.268 14.1565 136.887 14.3559 137.583 14.3559C137.971 14.3559 138.346 14.2977 138.708 14.1741C139.076 14.0453 139.378 13.8618 139.616 13.6182C139.849 13.3782 139.97 13.0782 139.97 12.7182C139.97 12.5841 139.949 12.4553 139.908 12.3335C139.872 12.2135 139.808 12.0988 139.72 11.9912C139.636 11.8835 139.514 11.7847 139.356 11.6912C139.195 11.5924 138.994 11.5059 138.751 11.4335L135.499 10.4488C135.253 10.38 134.973 10.2776 134.655 10.1488C134.334 10.0147 134.023 9.82589 133.717 9.58236C133.418 9.34236 133.167 9.02118 132.966 8.61883C132.763 8.21294 132.663 7.70294 132.663 7.08883C132.663 6.22765 132.875 5.50941 133.299 4.93765C133.722 4.36765 134.289 3.94236 134.999 3.66353C135.706 3.38471 136.488 3.25059 137.344 3.25765C138.203 3.26647 138.975 3.41471 139.659 3.70765C140.339 4.00236 140.904 4.42412 141.358 4.98177C141.817 5.53765 142.145 6.22059 142.348 7.02706L139.794 7.46647C139.703 7.05353 139.533 6.70412 139.284 6.41824C139.033 6.13412 138.734 5.9153 138.387 5.7653C138.045 5.6153 137.689 5.53765 137.313 5.53059C136.938 5.51647 136.586 5.56765 136.26 5.68059C135.932 5.7953 135.665 5.96471 135.457 6.18353C135.255 6.40589 135.155 6.67059 135.155 6.97589C135.155 7.25471 135.239 7.48412 135.406 7.66059C135.572 7.83177 135.784 7.97118 136.042 8.07883C136.298 8.18647 136.557 8.27647 136.823 8.34706L139.002 8.95765C139.32 9.04412 139.679 9.16059 140.076 9.31059C140.471 9.4553 140.849 9.65824 141.212 9.92118C141.571 10.1788 141.872 10.5177 142.109 10.9377C142.342 11.3612 142.463 11.8959 142.463 12.5435C142.463 13.2371 142.32 13.8388 142.035 14.3524C141.757 14.8659 141.379 15.2912 140.899 15.6265C140.425 15.9635 139.889 16.2124 139.284 16.3765C138.684 16.5477 138.067 16.6341 137.428 16.6341L137.426 16.6253Z" fill="#696969"/>
<path d="M149.996 16.3588C149.35 16.4877 148.714 16.5406 148.088 16.5194C147.463 16.5035 146.906 16.3941 146.42 16.1877C145.932 15.9741 145.561 15.6318 145.305 15.1606C145.068 14.7265 144.942 14.28 144.93 13.823C144.922 13.3677 144.92 12.8488 144.92 12.27V4.03766H147.286V12.1306C147.286 12.503 147.289 12.8365 147.296 13.1365C147.301 13.4365 147.362 13.6765 147.473 13.853C147.681 14.1953 148.015 14.3824 148.473 14.4088C148.932 14.4388 149.437 14.4177 149.996 14.3453V16.3571V16.3588ZM143.325 8.58707V6.71295H149.996V8.58707H143.325Z" fill="#696969"/>
<path d="M156.305 16.6253C155.36 16.6253 154.529 16.4065 153.814 15.9724C153.106 15.5382 152.552 14.94 152.157 14.1741C151.762 13.4118 151.563 12.5329 151.563 11.5412C151.563 10.5494 151.764 9.65118 152.168 8.88706C152.57 8.11588 153.13 7.51765 153.846 7.08883C154.561 6.66 155.381 6.44647 156.307 6.44647C157.233 6.44647 158.082 6.6653 158.798 7.09941C159.513 7.5353 160.07 8.1353 160.467 8.89765C160.869 9.66353 161.072 10.5441 161.072 11.5412C161.072 12.5382 160.869 13.4224 160.467 14.1847C160.063 14.9506 159.503 15.5488 158.788 15.9829C158.072 16.4118 157.245 16.6253 156.307 16.6253H156.305ZM156.305 14.3559C157.061 14.3559 157.628 14.0965 158.005 13.5741C158.379 13.0465 158.568 12.3706 158.568 11.5412C158.568 10.7118 158.376 10.0006 157.994 9.4853C157.62 8.97177 157.056 8.71412 156.305 8.71412C155.79 8.71412 155.367 8.83765 155.034 9.07765C154.705 9.31235 154.463 9.64235 154.303 10.0624C154.142 10.4859 154.063 10.9782 154.063 11.5394C154.063 12.4041 154.25 13.0888 154.626 13.5953C155.006 14.1035 155.566 14.3559 156.305 14.3559Z" fill="#696969"/>
<path d="M167.589 16.6253C166.656 16.6253 165.874 16.4029 165.244 15.9618C164.618 15.5118 164.144 14.9082 163.826 14.1424C163.513 13.3712 163.357 12.5047 163.357 11.5412C163.357 10.5776 163.513 9.71118 163.826 8.94C164.144 8.16883 164.608 7.5653 165.213 7.12059C165.823 6.67059 166.574 6.44647 167.464 6.44647C168.354 6.44647 169.142 6.66883 169.809 7.11C170.476 7.55471 170.991 8.15647 171.363 8.91883C171.73 9.68471 171.914 10.5565 171.914 11.5412C171.914 12.5259 171.732 13.3712 171.373 14.1424C171.01 14.9082 170.503 15.5118 169.85 15.9618C169.204 16.4029 168.448 16.6253 167.589 16.6253ZM162.962 20.64V6.71294H165.046V13.3182H165.349V20.64H162.962ZM167.203 14.4635C167.708 14.4635 168.125 14.3347 168.453 14.0788C168.78 13.8159 169.019 13.4629 169.173 13.0182C169.333 12.5771 169.414 12.0847 169.414 11.5412C169.414 10.9976 169.33 10.5194 169.163 10.0747C169.002 9.62471 168.751 9.27 168.412 9.00353C168.079 8.74059 167.646 8.60824 167.12 8.60824C166.625 8.60824 166.227 8.73177 165.921 8.97177C165.613 9.2153 165.391 9.55765 165.254 9.99883C165.113 10.4435 165.046 10.9571 165.046 11.5394C165.046 12.1218 165.113 12.6282 165.254 13.0694C165.391 13.5141 165.618 13.8565 165.931 14.0965C166.249 14.34 166.673 14.46 167.203 14.46V14.4635Z" fill="#696969"/>
<path d="M0.0859146 4.33588L12.0675 16.6412L7.93503 20.8835L0.0859146 12.8223V4.33588Z" fill="#696969"/>
<path d="M12.4799 0.0917664L20.3307 8.15471V16.6412L8.34913 4.33588L12.4799 0.0917664Z" fill="#696969"/>
</g>
<defs>
<clipPath id="clip0_428_967">
<rect width="172" height="21" fill="white"/>
</clipPath>
</defs>
</svg>
