<svg width="99" height="30" viewBox="0 0 99 30" fill="none" xmlns="http://www.w3.org/2000/svg">
<g clip-path="url(#clip0_786_1392)">
<path d="M28.433 10.2156C29.2913 7.52473 28.775 2.15661 27.1119 0.174783C26.894 -0.0851828 26.4883 -0.0480451 26.3072 0.238931L24.2586 3.47669C23.7523 4.12492 22.8403 4.27347 22.153 3.82106C19.93 2.3558 17.2744 1.505 14.4211 1.505C11.5677 1.505 8.91222 2.3558 6.68922 3.82106C6.00523 4.27347 5.09323 4.12154 4.58358 3.47669L2.53494 0.238931C2.35388 -0.0480451 1.94818 -0.081807 1.73023 0.174783C0.0671822 2.15998 -0.449169 7.52811 0.409181 10.2156C0.694181 11.1103 0.771298 12.0556 0.603651 12.9739C0.436005 13.8855 0.268358 14.9861 0.268358 15.7525C0.268358 23.6224 6.6054 30 14.4177 30C22.2334 30 28.5671 23.619 28.5671 15.7525C28.5671 14.9861 28.3995 13.8855 28.2318 12.9739C28.0675 12.0556 28.148 11.1103 28.433 10.2156ZM14.4177 26.8196C8.37572 26.8196 3.4637 21.8702 3.4637 15.7862C3.4637 15.5871 3.47041 15.3913 3.48047 15.1954C3.69841 11.0495 6.1997 7.50786 9.73701 5.81976C11.1553 5.13778 12.7446 4.75964 14.4211 4.75964C16.0976 4.75964 17.6835 5.13778 19.1051 5.82314C22.6425 7.51123 25.1438 11.0563 25.3617 15.1988C25.3718 15.3947 25.3785 15.5938 25.3785 15.7896C25.3751 21.8702 20.4597 26.8196 14.4177 26.8196Z" fill="black"/>
<path d="M19.1643 20.0345L16.3645 15.1457L13.9638 11.0707C13.9069 10.9728 13.8029 10.9154 13.6923 10.9154H11.3989C11.2849 10.9154 11.1809 10.9761 11.124 11.0774C11.0669 11.1754 11.0703 11.2969 11.1273 11.3948L13.424 15.2808L10.3426 20.0142C10.279 20.1122 10.2756 20.2371 10.3293 20.3383C10.3829 20.4396 10.4902 20.5037 10.6076 20.5037H12.9178C13.025 20.5037 13.1257 20.4497 13.1826 20.3586L14.8491 17.7387L16.3444 20.3484C16.4014 20.4463 16.5054 20.5071 16.616 20.5071H18.8927C19.0067 20.5071 19.1106 20.4463 19.1643 20.3484C19.2213 20.2539 19.2213 20.1324 19.1643 20.0345Z" fill="black"/>
<path d="M40.717 7.49923H43.643V23.4959H40.717V16.6799H37.4113V23.4993H34.4853V7.49923H37.4113V14.4459H40.717V7.49923Z" fill="black"/>
<path d="M52.6695 23.4998L52.0581 20.1772H48.5475L47.9865 23.4998H45.0604L48.2889 7.50309H52.2294L55.6123 23.4998H52.6695ZM48.9305 17.9699H51.6516L50.2541 10.3132L48.9305 17.9699Z" fill="black"/>
<path d="M62.1296 20.5824V17.1594C62.1296 16.8881 62.0792 16.7072 61.9785 16.6134C61.8776 16.5197 61.6895 16.4728 61.4174 16.4728H59.3581C57.6112 16.4728 56.7378 15.6287 56.7378 13.9373V10.0118C56.7378 8.33708 57.6515 7.50309 59.4824 7.50309H62.2808C64.1117 7.50309 65.0254 8.34039 65.0254 10.0118V12.2424H62.0759V10.417C62.0759 10.1458 62.0255 9.96489 61.9247 9.8711C61.8239 9.77731 61.6358 9.73042 61.3637 9.73042H60.3962C60.1073 9.73042 59.9124 9.77731 59.8116 9.8711C59.7109 9.96489 59.6604 10.1458 59.6604 10.417V13.6358C59.6604 13.9071 59.7109 14.088 59.8116 14.1818C59.9124 14.2756 60.1073 14.3225 60.3962 14.3225H62.4051C64.1856 14.3225 65.0758 15.1498 65.0758 16.8077V20.9911C65.0758 22.6658 64.152 23.4998 62.3043 23.4998H59.5563C57.7086 23.4998 56.7848 22.6625 56.7848 20.9911V18.7839H59.7075V20.5824C59.7075 20.8538 59.7578 21.0347 59.8587 21.1284C59.9594 21.2222 60.1543 21.2691 60.4432 21.2691H61.4107C61.6828 21.2691 61.8676 21.2222 61.9717 21.1284C62.0759 21.0347 62.1296 20.8538 62.1296 20.5824Z" fill="black"/>
<path d="M72.8836 7.49923H75.8063V20.9872C75.8063 22.6619 74.8825 23.4959 73.0348 23.4959H69.9341C68.0864 23.4959 67.1626 22.6586 67.1626 20.9872V7.49923H70.0886V20.582C70.0886 20.8532 70.139 21.0341 70.2398 21.1279C70.3406 21.2217 70.5287 21.2686 70.8008 21.2686H72.1479C72.4368 21.2686 72.6317 21.2217 72.7325 21.1279C72.8332 21.0341 72.8836 20.8532 72.8836 20.582V7.49923Z" fill="black"/>
<path d="M81.1475 17.2627V23.4993H78.2247V7.49923H84.1239C85.9716 7.49923 86.8951 8.3366 86.8951 10.0079V14.7507C86.8951 16.1373 86.2773 16.9479 85.0378 17.1857L87.7085 23.4993H84.5539L82.1114 17.2627H81.1475ZM81.1475 9.72995V15.1057H83.2574C83.5291 15.1057 83.7136 15.0588 83.8182 14.965C83.9187 14.8712 83.9694 14.6904 83.9694 14.4191V10.4166C83.9694 10.1453 83.9187 9.96442 83.8182 9.87063C83.7176 9.77684 83.5291 9.72995 83.2574 9.72995H81.1475Z" fill="black"/>
<path d="M95.7449 23.4998L95.1334 20.1772H91.6225L91.0618 23.4998H88.1393L91.3675 7.50309H95.3077L98.6911 23.4998H95.7449ZM92.009 17.9699H94.7303L93.3324 10.3132L92.009 17.9699Z" fill="black"/>
</g>
<defs>
<clipPath id="clip0_786_1392">
<rect width="99" height="30" fill="white"/>
</clipPath>
</defs>
</svg>
