<svg width="123" height="26" viewBox="0 0 123 26" fill="none" xmlns="http://www.w3.org/2000/svg">
<g clip-path="url(#clip0_786_1384)">
<path d="M36.4028 12.9621C36.4028 6.60405 40.2227 1.88814 46.4771 1.88814C50.9686 1.88814 53.865 4.03557 55.2501 7.15146L51.8499 8.87782C50.9267 6.68829 49.1637 5.29875 46.3932 5.29875C42.5314 5.29875 40.1807 8.24621 40.1807 12.9621C40.1807 17.7202 42.8252 20.5834 46.8969 20.5834C49.9611 20.5834 52.5639 18.815 52.7736 15.1096H45.2598V11.8673H56.2157V23.573H52.9413V20.5413C51.8079 22.6888 49.5412 24.0361 46.3092 24.0361C40.2647 23.9941 36.4028 19.3202 36.4028 12.9621Z" fill="black"/>
<path d="M58.3143 15.7833C58.3143 11.0253 61.3365 7.61464 66.1222 7.61464C70.4875 7.61464 73.6356 10.8147 73.6356 15.3201C73.6356 15.9938 73.5936 16.6676 73.5517 17.0044H61.7983C62.1763 19.3624 63.8135 20.8782 66.0378 20.8782C67.8008 20.8782 68.8084 20.0361 69.438 18.9413L72.4602 20.7098C70.8655 23.3204 68.5148 24.0362 66.0378 24.0362C61.5047 23.9941 58.3143 20.7098 58.3143 15.7833ZM70.1515 14.2675C69.8998 12.3727 68.4728 10.6884 65.9959 10.6884C63.6452 10.6884 62.2602 12.1201 61.8403 14.2675H70.1515Z" fill="black"/>
<path d="M75.776 2.3514H79.1762V23.5731H75.776V2.3514Z" fill="black"/>
<path d="M80.8968 19.1097C80.8968 15.6991 83.8771 14.2675 87.0675 14.2675H91.2651V13.5938C91.2651 11.699 89.9639 10.7305 88.1166 10.7305C86.3116 10.7305 85.2626 11.7411 84.7588 12.8359L81.6946 10.9411C82.7856 9.0463 84.9685 7.61464 88.0327 7.61464C92.1044 7.61464 94.6653 9.88841 94.6653 13.1306V19.4887C94.6653 20.3308 94.9588 20.6256 95.8825 20.6256H96.0922V23.5309H94.7491C93.0281 23.5309 92.0625 22.9415 91.7689 21.594C90.971 22.9415 89.2919 23.9099 86.8573 23.9099C83.8351 23.9099 80.8968 22.6046 80.8968 19.1097ZM87.3192 21.0467C89.208 21.0467 91.2651 20.2045 91.2651 17.5518V16.9623H87.445C85.3465 16.9623 84.3808 17.7623 84.3808 18.9834C84.3389 20.2045 85.5142 21.0467 87.3192 21.0467Z" fill="black"/>
<path d="M98.8218 19.4046V10.9833H95.9254V8.11999H98.8218V2.3514H102.222V8.11999H106.336V10.9833H102.222V18.8993C102.222 20.2467 102.683 20.6677 104.195 20.6677H106.336V23.531H103.271C100.375 23.5731 98.8218 22.2257 98.8218 19.4046Z" fill="black"/>
<path d="M107.091 15.8254C107.091 10.6884 110.491 7.61464 115.067 7.61464C119.642 7.61464 123 10.6884 123 15.8254C123 20.9624 119.6 24.0362 115.067 24.0362C110.491 24.0362 107.091 20.9624 107.091 15.8254ZM115.067 20.9203C117.795 20.9203 119.558 18.9413 119.558 15.8254C119.558 12.7516 117.795 10.7305 115.067 10.7305C112.338 10.7305 110.533 12.7516 110.533 15.8254C110.533 18.9413 112.38 20.9203 115.067 20.9203Z" fill="black"/>
<path d="M22.1722 2.35125L20.6611 3.86708L19.15 5.38294L16.8832 3.10916L14.6165 0.835416C14.1968 0.414348 13.6511 0.203815 13.1473 0.203815C12.6017 0.203815 12.056 0.414348 11.6782 0.835416L8.61392 3.9092L5.54967 6.98298C5.12991 7.40404 4.92001 7.95141 4.92001 8.45671C4.92001 9.00408 5.12991 9.55145 5.54967 9.93044L9.32751 13.72L13.1054 17.5096L16.1277 14.4779L19.15 11.4462L19.9056 12.2042L20.6611 12.9621L16.8832 16.7517L13.1054 20.5413L8.57198 15.9938L4.03854 11.4462C3.61877 11.0252 3.07307 10.8147 2.52738 10.8147C1.98168 10.8147 1.436 11.0252 1.01624 11.4462C0.596478 11.8673 0.386597 12.4147 0.386597 12.9621C0.386597 13.5095 0.596478 14.0569 1.01624 14.4779L6.30525 19.7834L11.5942 25.0888C12.014 25.5098 12.5597 25.7204 13.0634 25.7204C13.6091 25.7204 14.1548 25.5098 14.5326 25.0888L19.8636 19.7412L25.1946 14.3937C25.6143 13.9726 25.8242 13.4253 25.8242 12.92C25.8242 12.3726 25.6143 11.8252 25.1946 11.4462L23.6834 9.93044L22.1722 8.41459L23.6834 6.89874L25.1946 5.38294C25.6143 4.96189 25.8242 4.41446 25.8242 3.86708C25.8242 3.31969 25.6143 2.77232 25.1946 2.35125C24.7748 1.93019 24.2291 1.71965 23.6834 1.71965C23.1377 1.71965 22.592 1.93019 22.1722 2.35125ZM13.1054 11.4462L11.5942 9.93044L10.0831 8.41459L11.5942 6.89874L13.1054 5.38294L14.6165 6.89874L16.1277 8.41459L14.6165 9.93044L13.1054 11.4462Z" fill="black"/>
</g>
<defs>
<clipPath id="clip0_786_1384">
<rect width="123" height="26" fill="white"/>
</clipPath>
</defs>
</svg>
