<svg width="84" height="12" viewBox="0 0 84 12" fill="none" xmlns="http://www.w3.org/2000/svg">
<path fill-rule="evenodd" clip-rule="evenodd" d="M71.8132 5.30267C72.866 5.30267 73.2757 5.95176 73.3281 6.5191C73.3329 6.55276 73.3043 6.58161 73.271 6.58641H73.2662H70.3697C70.3363 6.58641 70.3077 6.55756 70.3077 6.52391C70.3077 6.5191 70.3077 6.5191 70.3077 6.51429C70.3935 5.96618 70.8794 5.30267 71.8132 5.30267ZM73.3996 8.90388C73.3615 8.90388 73.3234 8.92312 73.2995 8.95196C73.0375 9.32218 72.6135 9.55297 71.9799 9.55297C71.1033 9.55297 70.3458 8.9712 70.2649 8.14902C70.2601 8.11537 70.2887 8.08652 70.322 8.08171H70.3268H75.5291C75.5434 8.03363 75.5767 7.68265 75.5767 7.36051C75.5767 4.91322 74.1285 3.45639 71.7846 3.45639C69.8218 3.45639 68.0067 5.019 68.0067 7.46628C68.0067 10.0242 69.8647 11.5243 71.9513 11.5243C73.8379 11.5243 75.0289 10.4617 75.4195 9.17313C75.4243 9.16352 75.4338 9.11543 75.4481 9.04812C75.4624 8.98081 75.4195 8.91831 75.3528 8.90388C75.3433 8.90388 75.3385 8.89907 75.329 8.89907H73.3996V8.90388ZM77.9969 7.43743L75.5291 3.88911C75.491 3.83141 75.5053 3.75929 75.5577 3.71602C75.5767 3.7016 75.6006 3.69198 75.6291 3.69198H78.054C78.0969 3.69198 78.135 3.71121 78.1541 3.74487L79.4213 5.69212C79.4451 5.73059 79.4975 5.73059 79.5214 5.69212L80.76 3.74968C80.7838 3.71602 80.8219 3.69198 80.8601 3.69198H83.1468C83.2468 3.69198 83.304 3.80257 83.2468 3.8843L80.8124 7.34128C80.7838 7.38455 80.7838 7.43744 80.8124 7.48071C81.608 8.62502 82.5179 9.94723 83.3374 11.106C83.3945 11.1877 83.3374 11.2983 83.2373 11.2983H80.8315C80.7886 11.2983 80.7505 11.2791 80.7314 11.2454L79.4166 9.23564C79.3975 9.20679 79.3594 9.20198 79.3308 9.21641C79.326 9.22121 79.3165 9.22602 79.3118 9.23564C78.9163 9.82703 78.4018 10.6492 78.0112 11.2454C77.9873 11.2791 77.9492 11.2983 77.9111 11.2983H75.6673C75.6006 11.2983 75.5482 11.2454 75.5434 11.1781C75.5434 11.154 75.5529 11.13 75.5672 11.106L77.9921 7.57206C78.0302 7.53359 78.0302 7.4759 77.9969 7.43743ZM64.9291 11.1781V0.345595C64.9291 0.278283 64.9863 0.220586 65.053 0.220586H67.1254C67.1921 0.220586 67.2492 0.273475 67.2492 0.345595V11.1781C67.2492 11.2454 67.1921 11.2983 67.1254 11.2983H65.053C64.9863 11.3031 64.9339 11.2454 64.9291 11.1781ZM61.5229 11.1781V0.345595C61.5229 0.278283 61.58 0.220586 61.6467 0.220586H63.7143C63.781 0.220586 63.8382 0.273475 63.8382 0.345595V11.1781C63.8382 11.2454 63.7858 11.2983 63.7143 11.2983H61.642C61.5753 11.3031 61.5229 11.2454 61.5229 11.1781ZM56.4015 9.5097C57.3305 9.5097 58.1213 8.77407 58.1213 7.49032C58.1213 6.17292 57.3448 5.48538 56.4015 5.48538C55.4106 5.48538 54.6674 6.17292 54.6674 7.49032C54.6674 8.74522 55.4439 9.5097 56.4015 9.5097ZM58.1356 10.3223C57.8021 11.0579 57.0399 11.5146 56.0966 11.5146C53.8718 11.5146 52.3378 9.81741 52.3378 7.4759C52.3378 5.21132 53.7861 3.46601 56.0204 3.46601C57.3734 3.46601 57.9689 4.21606 58.1213 4.56704V3.81699C58.1213 3.74968 58.1737 3.69679 58.2452 3.69679H60.2413C60.308 3.69679 60.3652 3.74968 60.3652 3.8218V11.1829C60.3652 11.2502 60.3128 11.3031 60.2413 11.3031H58.25C58.1833 11.3031 58.1261 11.2502 58.1261 11.1829C58.1261 10.8992 58.1356 10.2597 58.1356 10.3223ZM47.3975 3.77852L48.7838 8.01921C48.8029 8.0769 48.8839 8.0769 48.8982 8.0144L50.0844 3.78333C50.0987 3.73045 50.1463 3.69198 50.2035 3.69198H52.2139C52.2949 3.69198 52.3569 3.77372 52.333 3.85065L50.0654 11.2117C50.0511 11.2646 50.0034 11.2983 49.951 11.2983H47.831C47.7786 11.2983 47.731 11.2646 47.7167 11.2165L46.1589 6.56237C46.1398 6.50468 46.0588 6.50468 46.0445 6.56237L44.5153 11.2165C44.501 11.2646 44.4533 11.2983 44.4009 11.2983H42.2333C42.1809 11.2983 42.1332 11.2646 42.1189 11.2117L39.8227 3.85065C39.8036 3.78814 39.837 3.71602 39.9037 3.69679C39.9132 3.69198 39.9275 3.69198 39.9418 3.69198H42.0904C42.1428 3.69198 42.1904 3.73045 42.2095 3.78333L43.3957 7.99998C43.41 8.05767 43.491 8.05767 43.51 8.00478L44.9107 3.77852C44.925 3.73044 44.9726 3.69198 45.025 3.69198H47.3022C47.3356 3.69679 47.3832 3.73044 47.3975 3.77852ZM39.1795 5.84117C39.1795 5.90848 39.1271 5.96137 39.0557 5.96137C39.0509 5.96137 39.0414 5.96137 39.0366 5.96137C38.8413 5.92771 38.646 5.91329 38.4459 5.91329C37.5169 5.91329 36.6784 6.46621 36.6784 7.98074V11.1781C36.6784 11.2454 36.626 11.2983 36.5593 11.2983H34.487C34.4203 11.2983 34.3631 11.2454 34.3631 11.1781V3.81699C34.3631 3.74968 34.4155 3.69198 34.487 3.69198H36.4831C36.5498 3.69198 36.6022 3.74487 36.6022 3.81699V4.7209C36.9976 3.86507 37.96 3.61986 38.565 3.61986C38.7508 3.61986 38.9366 3.6391 39.0795 3.67275C39.1367 3.68718 39.1748 3.73526 39.1748 3.79295C39.1795 3.78814 39.1795 5.84117 39.1795 5.84117ZM30.9139 11.1781V3.81699C30.9139 3.74968 30.9664 3.69198 31.0378 3.69198H33.1102C33.1769 3.69198 33.234 3.74487 33.234 3.81699V11.1781C33.234 11.2454 33.1816 11.2983 33.1102 11.2983H31.0378C30.9711 11.3031 30.9139 11.2454 30.9139 11.1781ZM32.0573 0.0090332C32.8196 0.0090332 33.4294 0.619652 33.4294 1.3697C33.4294 2.11976 32.8196 2.73037 32.0573 2.73037C31.3284 2.73037 30.7186 2.11976 30.7186 1.3697C30.7186 0.619652 31.3237 0.0090332 32.0573 0.0090332ZM23.5392 6.89413H25.9879C26.0308 6.89413 26.0594 6.85086 26.0451 6.81239L24.835 3.30734C24.8255 3.27368 24.7874 3.25926 24.7588 3.26888C24.7398 3.27368 24.7255 3.28811 24.7207 3.30734L23.4821 6.81239C23.4678 6.85086 23.5011 6.89413 23.5392 6.89413ZM26.7502 9.09621H22.7484C22.696 9.09621 22.6531 9.12986 22.6341 9.17794L21.9147 11.2165C21.8956 11.2646 21.8528 11.2983 21.8004 11.2983H19.5374C19.4707 11.2983 19.4136 11.2454 19.4136 11.1781C19.4136 11.1637 19.4183 11.1492 19.4231 11.1348L23.3963 0.528299C23.4154 0.480219 23.4582 0.446563 23.5106 0.451371H26.1261C26.1785 0.451371 26.2214 0.485028 26.2404 0.533108L30.1708 11.1396C30.1946 11.2021 30.1612 11.2742 30.0993 11.2983C30.085 11.3031 30.0707 11.3079 30.0564 11.3079H27.6982C27.6458 11.3079 27.6029 11.2742 27.5839 11.2262L26.8645 9.18756C26.8455 9.12986 26.7978 9.09621 26.7502 9.09621Z" fill="black"/>
<path fill-rule="evenodd" clip-rule="evenodd" d="M16.4886 4.5189C17.0937 5.1151 17.2938 6.0142 16.9936 6.81233L15.8741 9.87986C15.5787 10.6828 14.9118 11.3078 14.0828 11.4713C13.2396 11.6396 12.3725 11.3271 11.8294 10.6588L5.12643 2.55242C5.07403 2.48992 4.97875 2.4803 4.91681 2.53319C4.89776 2.54761 4.88346 2.57165 4.87394 2.59569L2.69201 8.55284C2.64913 8.67785 2.76823 8.79324 2.88734 8.74516L5.56472 7.64412C6.16975 7.39891 6.86054 7.6922 7.1035 8.30282C7.11303 8.33167 7.12732 8.36052 7.13209 8.38937C7.33218 8.99999 6.99869 9.6635 6.41272 9.9039L2.91592 11.3463C2.26801 11.6156 1.52482 11.5675 0.94361 11.1732C0.124197 10.6203 -0.209285 9.57695 0.133725 8.64419L2.71107 1.61005C3.01596 0.778259 3.71151 0.186871 4.5738 0.0378222C5.42656 -0.116035 6.29362 0.206104 6.84625 0.884036L10.6956 5.53821L14.2353 4.07657C15.0166 3.74481 15.8788 3.9179 16.4886 4.5189ZM14.4449 6.86041C14.4878 6.73541 14.3687 6.62001 14.2496 6.66809L12.2963 7.47584L13.4683 8.89421C13.5207 8.95671 13.6112 8.96633 13.6779 8.91344C13.6969 8.89421 13.7112 8.87498 13.7207 8.85094L14.4449 6.86041Z" fill="black"/>
</svg>
