<svg width="87" height="19" viewBox="0 0 87 19" fill="none" xmlns="http://www.w3.org/2000/svg">
<g clip-path="url(#clip0_878_1397)">
<path fill-rule="evenodd" clip-rule="evenodd" d="M76.4998 15.316C79.0932 15.316 81.2689 13.4497 81.8815 10.9269C81.8851 10.9087 81.888 10.8897 81.888 10.8704C81.888 10.717 81.7699 10.5928 81.6241 10.5928H79.3846C79.278 10.5928 79.1867 10.6588 79.1454 10.7549L79.1446 10.7545C78.6843 11.8062 77.6743 12.5373 76.4998 12.5373C74.8932 12.5373 73.5904 11.1692 73.5904 9.48115C73.5904 7.79334 74.8932 6.42485 76.4998 6.42485C77.6743 6.42485 78.6843 7.15594 79.1446 8.20785L79.1454 8.20732C79.1867 8.30262 79.278 8.36973 79.3846 8.36973H81.6241C81.7699 8.36973 81.888 8.24532 81.888 8.0918C81.888 8.07249 81.8851 8.05471 81.8815 8.03624C81.2689 5.5134 79.0932 3.64657 76.4998 3.64657C73.4331 3.64657 70.9447 6.2596 70.9447 9.48115C70.9447 12.7036 73.4331 15.316 76.4998 15.316ZM86.0452 3.9243V14.76C86.0452 14.9133 85.9263 15.0377 85.7813 15.0377H83.665C83.5186 15.0377 83.4004 14.9133 83.4004 14.76V3.9243H86.0452ZM84.7228 0.0346565C83.8463 0.0346565 83.1358 0.781326 83.1358 1.70175C83.1358 2.62246 83.8463 3.36885 84.7228 3.36885C85.5993 3.36885 86.3098 2.62246 86.3098 1.70175C86.3098 0.781326 85.5993 0.0346565 84.7228 0.0346565ZM59.9785 8.36973C60.4424 6.60814 61.9787 5.31367 63.8034 5.31367C65.6282 5.31367 67.1632 6.60814 67.627 8.36973H59.9785ZM63.8034 3.64657C60.7351 3.64657 58.2479 6.25865 58.2479 9.48115C58.2479 12.7032 60.7351 15.316 63.8034 15.316C65.9722 15.316 67.8489 14.0098 68.7637 12.1063C68.7821 12.0685 68.7924 12.0267 68.7924 11.9815C68.7924 11.8277 68.6739 11.7038 68.5278 11.7038H67.3002C67.2127 11.7038 67.1351 11.7488 67.0874 11.8182C66.3731 12.9224 65.1692 13.6487 63.8034 13.6487C61.791 13.6487 60.1301 12.0755 59.8713 10.0366H69.0863C69.2281 10.0366 69.3431 9.91952 69.3503 9.77284C69.3552 9.67624 69.3577 9.57889 69.3577 9.48115C69.3577 6.25865 66.8711 3.64657 63.8034 3.64657ZM56.3962 0.312475H55.3385C55.1918 0.312475 55.0738 0.436935 55.0738 0.590199V14.76C55.0738 14.9133 55.1918 15.0377 55.3385 15.0377H56.3962C56.5424 15.0377 56.6612 14.9133 56.6612 14.76V0.590199C56.6612 0.436935 56.5424 0.312475 56.3962 0.312475ZM53.222 11.7038H51.994C51.9083 11.7038 51.8326 11.7469 51.7849 11.8129C51.0718 12.9202 49.8654 13.6487 48.4975 13.6487C46.3053 13.6487 44.5294 11.7828 44.5294 9.48115C44.5294 7.17936 46.3053 5.31367 48.4975 5.31367C49.8654 5.31367 51.0718 6.0423 51.7849 7.14924C51.8332 7.21562 51.909 7.25849 51.994 7.25849H53.222C53.3683 7.25849 53.4868 7.13385 53.4868 6.98068C53.4868 6.93544 53.4759 6.89342 53.4575 6.85584C52.5433 4.95256 50.6654 3.64657 48.4975 3.64657C45.4294 3.64657 42.9425 6.25865 42.9425 9.48115C42.9425 12.7032 45.4294 15.316 48.4975 15.316C50.6654 15.316 52.5433 14.0098 53.4575 12.1063C53.4759 12.0685 53.4868 12.0267 53.4868 11.9815C53.4868 11.8277 53.3683 11.7038 53.222 11.7038ZM42.6816 3.65328C41.0808 3.7326 39.8024 4.53584 38.9743 5.76279V4.20164C38.9743 4.04904 38.8557 3.9243 38.7097 3.9243H37.6517C37.5056 3.9243 37.3873 4.04904 37.3873 4.20164V14.76C37.3873 14.9133 37.5056 15.0377 37.6517 15.0377H38.7097C38.8557 15.0377 38.9743 14.9133 38.9743 14.76V9.48115C38.9743 7.27294 40.6098 5.46628 42.6773 5.32331C42.8234 5.32331 42.9425 5.19865 42.9425 5.04492V3.9311C42.9425 3.77878 42.8258 3.65621 42.6816 3.65328ZM35.7999 14.76V3.9243H34.2127V14.76C34.2127 14.9133 34.3315 15.0377 34.4774 15.0377H35.5354C35.6815 15.0377 35.7999 14.9133 35.7999 14.76ZM36.0643 1.70175C36.0643 2.31556 35.591 2.81312 35.0064 2.81312C34.4222 2.81312 33.9485 2.31556 33.9485 1.70175C33.9485 1.08795 34.4222 0.590199 35.0064 0.590199C35.591 0.590199 36.0643 1.08795 36.0643 1.70175ZM32.361 11.7038H31.1333C31.0473 11.7038 30.9723 11.7469 30.9235 11.8129C30.2108 12.9202 29.0049 13.6487 27.6363 13.6487C25.4446 13.6487 23.6684 11.7828 23.6684 9.48115C23.6684 7.17936 25.4446 5.31367 27.6363 5.31367C29.0049 5.31367 30.2108 6.0423 30.9241 7.14924C30.9723 7.21562 31.0481 7.25849 31.1333 7.25849H32.361C32.5074 7.25849 32.6262 7.13385 32.6262 6.98068C32.6262 6.93544 32.6148 6.89342 32.5972 6.85584C31.6824 4.95256 29.8045 3.64657 27.6363 3.64657C24.5683 3.64657 22.0808 6.25865 22.0808 9.48115C22.0808 12.7032 24.5683 15.316 27.6363 15.316C29.8045 15.316 31.6824 14.0098 32.5972 12.1063C32.6148 12.0685 32.6262 12.0267 32.6262 11.9815C32.6262 11.8277 32.5074 11.7038 32.361 11.7038ZM8.75612 0C4.54249 0 1.0065 3.03229 0.0113281 7.13186C0.00458519 7.1617 0 7.19211 0 7.22384C0 7.47313 0.192488 7.67524 0.429929 7.67524H4.06806C4.2413 7.67524 4.38956 7.56662 4.45797 7.41157C5.20545 5.70245 6.84794 4.5145 8.75612 4.5145C11.3667 4.5145 13.4841 6.73855 13.4841 9.48115C13.4841 12.2238 11.3667 14.4478 8.75612 14.4478C6.84794 14.4478 5.20608 13.2597 4.45861 11.5501L4.45797 11.5511C4.38956 11.3957 4.2413 11.2873 4.06806 11.2873H0.429929C0.192488 11.2873 0 11.4888 0 11.7388C0 11.7697 0.00458519 11.7992 0.0106988 11.8287C1.0056 15.9285 4.54168 18.9621 8.75612 18.9621C13.7409 18.9621 17.7826 14.7167 17.7826 9.48115C17.7826 4.24499 13.7409 0 8.75612 0ZM6.60672 9.48115C6.60672 8.23475 7.56929 7.22384 8.75612 7.22384C9.94287 7.22384 10.905 8.23475 10.905 9.48115C10.905 10.7276 9.94287 11.7388 8.75612 11.7388C7.56929 11.7388 6.60672 10.7276 6.60672 9.48115Z" fill="black"/>
</g>
<defs>
<clipPath id="clip0_878_1397">
<rect width="87" height="19" fill="white"/>
</clipPath>
</defs>
</svg>
