<svg width="76" height="20" viewBox="0 0 76 20" fill="none" xmlns="http://www.w3.org/2000/svg">
<g clip-path="url(#clip0_878_1394)">
<path d="M51.2689 4.13312C49.9245 4.13312 48.8879 4.61375 47.9261 5.61688V4.36687H45.286V16.6669H48.1267V9.53313C48.1267 7.9 49.096 6.86688 50.5668 6.86688C50.834 6.86688 51.0683 6.9 51.2352 6.93313L53.2069 4.33313C52.4381 4.2 51.7703 4.13312 51.2689 4.13312ZM75.7664 4.36687H72.4909L69.4665 8.37875L66.4421 4.36625H63.1666L67.7876 10.5644L63.1666 16.6669H66.5087L69.4497 12.7756L72.3906 16.6669H75.7664L71.1142 10.5744L75.7664 4.36687ZM16.1095 1.6C15.1402 2.9 14.906 3.33313 13.9703 3.33313H0V20H5.48134C6.7179 20 7.92082 19.4 8.68954 18.4C9.69249 17.0669 9.8258 16.6669 10.7951 16.6669H24.799V0H19.2841C18.0475 0 16.8446 0.6 16.1089 1.6H16.1095ZM20.454 12.3669H14.6051C13.3349 12.3669 12.1656 12.9 11.3969 13.9331C10.3939 15.2669 10.1933 15.6669 9.25767 15.6669H4.31144V7.66688H10.1603C11.4299 7.66688 12.5998 7.06687 13.3685 6.06687C14.3715 4.76687 14.6387 4.36687 15.5408 4.36687H20.454V12.3669ZM41.4424 8.26688C42.6796 7.56688 43.548 6.33312 43.548 4.7C43.548 2.3 41.7103 0 39.0366 0H31.0155V16.6669H39.0366C41.9439 16.6669 43.9492 14.6 43.9492 12C43.9492 10.4669 43.2477 9.13313 41.4424 8.26688ZM33.8561 2.6H38.8024C40.0389 2.6 40.774 3.76687 40.774 4.8C40.774 6.06687 39.6714 6.93313 38.6354 6.93313H33.8561V2.6ZM38.6354 14.0669H33.8561V9.53313H38.8024C40.0726 9.53313 41.1085 10.6331 41.1085 11.7669C41.1085 13.0331 39.8053 14.0669 38.6354 14.0669Z" fill="black"/>
<path d="M60.326 13.1331C59.8582 13.8668 58.9555 14.2999 57.9526 14.2999C56.3827 14.2999 55.0789 13.2331 55.0789 11.5999H63.5678C63.7018 11.0999 63.7348 10.8668 63.7348 10.4331C63.7348 6.69993 61.4286 4.13306 57.9532 4.13306C54.5438 4.13306 52.1379 6.56681 52.1379 10.5331C52.1379 14.3999 54.4435 16.8999 58.0198 16.8999C60.5266 16.8999 62.7325 15.6668 63.3673 13.1331H60.326ZM57.9526 6.73306C59.5236 6.73306 60.7272 7.73306 60.6935 9.23306H55.1119C55.1119 7.76681 56.3827 6.73306 57.9526 6.73306Z" fill="black"/>
</g>
<defs>
<clipPath id="clip0_878_1394">
<rect width="76" height="20" fill="white"/>
</clipPath>
</defs>
</svg>
