<svg width="86" height="18" viewBox="0 0 86 18" fill="none" xmlns="http://www.w3.org/2000/svg">
<g clip-path="url(#clip0_878_1384)">
<path d="M9.04029 0L7.90988 6.71549L4.58887 9.55014L6.19506 0H2.97691L0 17.6147H3.21913L4.04578 12.7419L7.37737 9.88517L6.06338 17.6147H9.28251L12.2594 0H9.04029Z" fill="black"/>
<path d="M16.6639 9.92682L15.2692 11.1852C14.231 12.116 13.6851 12.9716 13.5659 13.6768C13.4515 14.3568 13.6678 14.8594 14.2464 14.8594C14.975 14.8594 15.5892 14.2054 16.0477 13.5755L16.6639 9.92682ZM15.4129 17.6278L16.0122 15.8664H15.7104C15.1634 16.5716 14.1378 17.8796 12.6546 17.8796C10.9946 17.8796 10.2852 16.5716 10.5871 14.7841C10.91 12.8713 11.9491 11.4881 13.9984 9.77586L17.131 7.15887L17.1906 6.80681C17.3867 5.64927 17.1608 5.04542 16.4822 5.04542C15.8036 5.04542 15.3749 5.64927 15.1788 6.80681L14.902 8.4428H11.7588L11.9164 7.51196C12.4095 4.59305 14.2753 2.78052 16.8648 2.78052C19.4543 2.78052 20.7078 4.59204 20.2107 7.53704L18.5055 17.6278H15.4129Z" fill="black"/>
<path d="M19.5674 17.6273L22.0335 3.03228H25.1766L24.5855 4.74351H24.8873C25.8841 3.46059 26.9539 2.78052 28.0862 2.78052C29.3435 2.78052 30.5018 3.81267 30.026 6.63027L28.1679 17.6268H25.0248L26.7252 7.5611C26.8915 6.58012 26.7463 5.95019 26.0418 5.95019C25.388 5.95019 24.8498 6.60419 24.4885 7.10772L22.711 17.6268L19.5674 17.6273Z" fill="black"/>
<path d="M36.5654 6.78186C36.3702 6.15294 35.993 5.69955 35.4152 5.69955C34.6856 5.69955 34.2484 6.50502 34.0657 7.58732L33.1765 12.8464C32.994 13.9287 33.1593 14.7341 33.8889 14.7341C34.4675 14.7341 34.9961 14.2818 35.4047 13.6518L36.5654 6.78186ZM37.875 17.6275L34.7319 17.628L35.2432 15.9418H34.9414C34.0502 17.0492 33.2314 17.8797 31.9991 17.8797C30.264 17.8797 29.3337 15.9418 30.1968 10.8342L30.3669 9.82715C31.2301 4.71857 32.7141 2.78166 34.6251 2.78166C35.6566 2.78166 36.2871 3.51189 36.6755 4.34243H36.9772L37.7087 0.012207H40.852L37.875 17.6275Z" fill="black"/>
<path d="M48.3708 7.96603L45.2275 7.96553L45.4611 6.58131C45.6188 5.65047 45.4736 5.02155 44.744 5.02155C44.1903 5.02155 43.8126 5.47494 43.7357 5.92731C43.604 6.70769 43.9674 7.2353 44.5557 8.06685L46.281 10.5073C47.0077 11.5645 47.6757 12.6719 47.395 14.332C47.0423 16.4203 45.1353 17.8798 42.7976 17.8798C40.4598 17.8798 38.8229 16.5457 39.2911 13.7783L39.5035 12.5204H42.6466L42.3785 14.1063C42.2256 15.012 42.5169 15.666 43.1965 15.666C43.8252 15.666 44.1616 15.1625 44.2509 14.6339C44.374 13.9037 43.9856 13.376 43.4175 12.5706L41.7182 10.1301C41.0126 9.098 40.4108 8.04177 40.6963 6.35562C40.9896 4.61933 42.7331 2.78271 45.1728 2.78271C47.6123 2.78271 48.962 4.46886 48.5495 6.9093L48.3708 7.96603Z" fill="black"/>
<path d="M72.8528 17.628L70.9159 11.085H70.614L69.5088 17.628H66.3655L69.3414 0.012207H72.4856L71.0016 8.79501H71.3033L74.9424 3.03242H78.3126L74.0159 9.85124L76.3988 17.628H72.8528Z" fill="black"/>
<path d="M80.1371 9.1971H82.5007L82.9006 6.83189C83.0745 5.79973 82.8506 5.04542 82.021 5.04542C81.1916 5.04542 80.7119 5.80074 80.537 6.83189L80.1371 9.1971ZM79.7757 11.3366L79.3547 13.8282C79.1806 14.8604 79.4047 15.6147 80.2351 15.6147C81.0655 15.6147 81.5442 14.8594 81.7193 13.8282L81.9365 12.5453H85.3065C84.8009 15.5395 82.569 17.8796 79.8535 17.8796C77.1381 17.8796 75.6962 15.8414 76.5469 10.808L76.7084 9.85211C77.5591 4.81873 79.6892 2.78052 82.4046 2.78052C85.1201 2.78052 86.6118 4.81873 85.7611 9.85211L85.5104 11.3366H79.7757Z" fill="black"/>
<path d="M47.5393 17.627L50.5161 0.012207H53.6594L52.9067 4.4658H53.2086C54.212 3.43364 55.1281 2.77965 56.2594 2.77965C57.5167 2.77965 58.474 3.8118 57.9973 6.6294L56.1393 17.626H52.996L54.7349 7.33356C54.9012 6.35256 54.7561 5.72263 54.0516 5.72263C53.3978 5.72263 52.8596 6.37663 52.4982 6.88018L50.6824 17.627H47.5393Z" fill="black"/>
<path d="M63.4617 9.92682L62.0671 11.1852C61.0289 12.116 60.4819 12.9716 60.3638 13.6768C60.2494 14.3568 60.4656 14.8594 61.0442 14.8594C61.7738 14.8594 62.387 14.2054 62.8456 13.5755L63.4617 9.92682ZM62.2107 17.6278L62.81 15.8664H62.5083C61.9613 16.5716 60.9357 17.8796 59.4525 17.8796C57.7926 17.8796 57.0831 16.5716 57.3849 14.7841C57.7079 12.8713 58.747 11.4881 60.7964 9.77586L63.9288 7.15887L63.9885 6.80681C64.1836 5.64927 63.9588 5.04542 63.28 5.04542C62.6015 5.04542 62.1718 5.64927 61.9766 6.80681L61.6999 8.4428H58.5566L58.7143 7.51196C59.2074 4.59305 61.0731 2.78052 63.6626 2.78052C66.2522 2.78052 67.5056 4.59204 67.0087 7.53704L65.3035 17.6278H62.2107Z" fill="black"/>
</g>
<defs>
<clipPath id="clip0_878_1384">
<rect width="86" height="18" fill="white"/>
</clipPath>
</defs>
</svg>
