<svg width="798" height="60" viewBox="0 0 798 60" fill="none" xmlns="http://www.w3.org/2000/svg">
<path d="M0.0568181 0.81818H15.2273L31.25 39.9091H31.9318L47.9545 0.81818H63.125V59H51.1932V21.1307H50.7102L35.6534 58.7159H27.5284L12.4716 20.9886H11.9886V59H0.0568181V0.81818ZM83.2884 59H70.1065L90.1918 0.81818H106.044L126.101 59H112.919L98.3452 14.1136H97.8906L83.2884 59ZM82.4645 36.1307H113.601V45.733H82.4645V36.1307ZM145.405 0.81818V59H133.104V0.81818H145.405ZM155.526 59V0.81818H167.827V26.4716H168.594L189.531 0.81818H204.276L182.685 26.8693L204.531 59H189.815L173.878 35.0795L167.827 42.4659V59H155.526ZM210.682 59V0.81818H249.886V10.9602H222.983V24.8239H247.869V34.9659H222.983V48.858H250V59H210.682ZM259.666 59V0.81818H282.621C287.015 0.81818 290.765 1.60417 293.871 3.17614C296.996 4.72917 299.373 6.93561 301.001 9.79545C302.649 12.6364 303.473 15.9792 303.473 19.8239C303.473 23.6875 302.64 27.0114 300.973 29.7955C299.306 32.5606 296.892 34.6818 293.729 36.1591C290.585 37.6364 286.778 38.375 282.308 38.375H266.939V28.4886H280.32C282.668 28.4886 284.619 28.1667 286.172 27.5227C287.725 26.8788 288.88 25.9129 289.638 24.625C290.414 23.3371 290.803 21.7367 290.803 19.8239C290.803 17.892 290.414 16.2633 289.638 14.9375C288.88 13.6117 287.715 12.608 286.143 11.9261C284.59 11.2254 282.63 10.875 280.263 10.875H271.967V59H259.666ZM291.087 32.5227L305.547 59H291.967L277.82 32.5227H291.087ZM343.729 17.5511C343.501 15.2595 342.526 13.4792 340.803 12.2102C339.079 10.9413 336.74 10.3068 333.786 10.3068C331.778 10.3068 330.083 10.5909 328.7 11.1591C327.318 11.7083 326.257 12.4754 325.518 13.4602C324.799 14.4451 324.439 15.5625 324.439 16.8125C324.401 17.8542 324.619 18.7633 325.092 19.5398C325.585 20.3163 326.257 20.9886 327.109 21.5568C327.962 22.1061 328.946 22.589 330.064 23.0057C331.181 23.4034 332.375 23.7443 333.643 24.0284L338.871 25.2784C341.409 25.8466 343.738 26.6042 345.859 27.5511C347.981 28.4981 349.818 29.6629 351.371 31.0455C352.924 32.428 354.126 34.0568 354.979 35.9318C355.85 37.8068 356.295 39.9564 356.314 42.3807C356.295 45.9413 355.386 49.0284 353.587 51.642C351.806 54.2367 349.231 56.2538 345.859 57.6932C342.507 59.1136 338.464 59.8239 333.729 59.8239C329.032 59.8239 324.941 59.1042 321.456 57.6648C317.99 56.2254 315.282 54.0947 313.331 51.2727C311.399 48.4318 310.386 44.9186 310.291 40.733H322.195C322.327 42.6837 322.886 44.3125 323.871 45.6193C324.875 46.9072 326.21 47.8826 327.876 48.5455C329.562 49.1894 331.465 49.5114 333.587 49.5114C335.67 49.5114 337.479 49.2083 339.013 48.6023C340.566 47.9962 341.768 47.1534 342.621 46.0739C343.473 44.9943 343.899 43.7538 343.899 42.3523C343.899 41.0455 343.511 39.947 342.734 39.0568C341.977 38.1667 340.859 37.4091 339.382 36.7841C337.924 36.1591 336.134 35.5909 334.013 35.0795L327.678 33.4886C322.772 32.2955 318.899 30.4299 316.058 27.892C313.217 25.3542 311.806 21.9356 311.825 17.6364C311.806 14.1136 312.744 11.036 314.638 8.40341C316.551 5.77083 319.174 3.71591 322.507 2.23864C325.84 0.761362 329.628 0.0227251 333.871 0.0227251C338.189 0.0227251 341.958 0.761362 345.178 2.23864C348.416 3.71591 350.935 5.77083 352.734 8.40341C354.534 11.036 355.462 14.0852 355.518 17.5511H343.729ZM395.405 0.81818V59H383.104V0.81818H395.405ZM454.19 0.81818V59H443.565L418.253 22.3807H417.827V59H405.526V0.81818H416.321L441.435 37.4091H441.946V0.81818H454.19ZM495.916 17.5511C495.689 15.2595 494.714 13.4792 492.99 12.2102C491.267 10.9413 488.928 10.3068 485.973 10.3068C483.965 10.3068 482.27 10.5909 480.888 11.1591C479.505 11.7083 478.445 12.4754 477.706 13.4602C476.986 14.4451 476.626 15.5625 476.626 16.8125C476.589 17.8542 476.806 18.7633 477.28 19.5398C477.772 20.3163 478.445 20.9886 479.297 21.5568C480.149 22.1061 481.134 22.589 482.251 23.0057C483.369 23.4034 484.562 23.7443 485.831 24.0284L491.058 25.2784C493.596 25.8466 495.926 26.6042 498.047 27.5511C500.168 28.4981 502.005 29.6629 503.558 31.0455C505.111 32.428 506.314 34.0568 507.166 35.9318C508.037 37.8068 508.482 39.9564 508.501 42.3807C508.482 45.9413 507.573 49.0284 505.774 51.642C503.994 54.2367 501.418 56.2538 498.047 57.6932C494.695 59.1136 490.651 59.8239 485.916 59.8239C481.219 59.8239 477.128 59.1042 473.643 57.6648C470.178 56.2254 467.469 54.0947 465.518 51.2727C463.587 48.4318 462.573 44.9186 462.479 40.733H474.382C474.515 42.6837 475.073 44.3125 476.058 45.6193C477.062 46.9072 478.397 47.8826 480.064 48.5455C481.75 49.1894 483.653 49.5114 485.774 49.5114C487.857 49.5114 489.666 49.2083 491.2 48.6023C492.753 47.9962 493.956 47.1534 494.808 46.0739C495.661 44.9943 496.087 43.7538 496.087 42.3523C496.087 41.0455 495.698 39.947 494.922 39.0568C494.164 38.1667 493.047 37.4091 491.57 36.7841C490.111 36.1591 488.321 35.5909 486.2 35.0795L479.865 33.4886C474.96 32.2955 471.087 30.4299 468.246 27.892C465.405 25.3542 463.994 21.9356 464.013 17.6364C463.994 14.1136 464.931 11.036 466.825 8.40341C468.738 5.77083 471.361 3.71591 474.695 2.23864C478.028 0.761362 481.816 0.0227251 486.058 0.0227251C490.376 0.0227251 494.145 0.761362 497.365 2.23864C500.604 3.71591 503.123 5.77083 504.922 8.40341C506.721 11.036 507.649 14.0852 507.706 17.5511H495.916ZM514.56 10.9602V0.81818H562.344V10.9602H544.531V59H532.372V10.9602H514.56ZM582.514 0.81818V59H570.213V0.81818H582.514ZM590.419 10.9602V0.81818H638.203V10.9602H620.391V59H608.232V10.9602H590.419ZM682.01 0.81818H694.311V38.6023C694.311 42.8447 693.298 46.5568 691.271 49.7386C689.264 52.9205 686.451 55.4015 682.834 57.1818C679.216 58.9432 675.002 59.8239 670.192 59.8239C665.362 59.8239 661.139 58.9432 657.521 57.1818C653.904 55.4015 651.091 52.9205 649.084 49.7386C647.076 46.5568 646.072 42.8447 646.072 38.6023V0.81818H658.374V37.5511C658.374 39.767 658.857 41.7367 659.822 43.4602C660.807 45.1837 662.19 46.5379 663.97 47.5227C665.75 48.5076 667.824 49 670.192 49C672.578 49 674.652 48.5076 676.413 47.5227C678.194 46.5379 679.567 45.1837 680.533 43.4602C681.518 41.7367 682.01 39.767 682.01 37.5511V0.81818ZM702.216 10.9602V0.81818H750V10.9602H732.188V59H720.028V10.9602H702.216ZM757.869 59V0.81818H797.074V10.9602H770.17V24.8239H795.057V34.9659H770.17V48.858H797.188V59H757.869Z" fill="black"/>
</svg>
