<svg width="24" height="24" viewBox="0 0 24 24" fill="none" xmlns="http://www.w3.org/2000/svg">
<path d="M15.0121 9.23425C16.5762 7.66211 18.1262 6.1066 19.6716 4.54653C19.8126 4.40423 19.9059 4.3335 20.0902 4.50964C21.0373 5.41474 21.7273 6.47013 21.9611 7.77806C22.28 9.56242 21.8754 11.1656 20.6918 12.5511C19.9404 13.4305 19.0018 14.0116 17.891 14.3152C17.8531 14.3255 17.8193 14.3508 17.781 14.3705C17.8042 14.5044 17.9196 14.5182 18.0057 14.5545C19.3936 15.1387 20.7824 15.721 22.1728 16.2993C22.3581 16.3763 22.4581 16.454 22.3641 16.6852C21.9666 17.6638 21.4501 18.5569 20.6336 19.2475C19.737 20.006 18.7123 20.4605 17.5416 20.5717C15.8904 20.7286 14.447 20.2311 13.2202 19.1283C12.2296 18.2379 11.6461 17.1101 11.4482 15.7845C11.3367 15.0371 11.362 14.2974 11.558 13.5653C11.5781 13.4902 11.601 13.4036 11.4689 13.2931C9.16273 15.612 6.85252 17.935 4.54596 20.2543C2.85564 18.906 1.98783 16.7688 2.45954 14.6024C2.95133 12.3438 4.39295 10.9595 6.54558 10.2633C6.51097 10.0676 6.35799 10.0436 6.23401 9.99104C4.88514 9.4195 3.53664 8.84706 2.18474 8.28286C2.02221 8.21503 1.95757 8.15302 2.02862 7.96741C2.56089 6.57677 3.38396 5.42856 4.71736 4.71401C6.3018 3.86493 7.9352 3.76112 9.59521 4.4671C11.3836 5.22767 12.4629 6.59961 12.9022 8.48446C13.0926 9.30159 13.065 10.1285 12.8755 10.9471C12.8481 11.0652 12.7962 11.1792 12.8734 11.3787C13.5975 10.6527 14.2972 9.95116 15.0121 9.23425Z" fill="white"/>
</svg>
