<svg width="112" height="52" viewBox="0 0 112 52" fill="none" xmlns="http://www.w3.org/2000/svg">
<path d="M31.2245 19.2688C34.3525 16.1245 37.4525 13.0135 40.5434 9.89334C40.8254 9.60876 41.012 9.4673 41.3806 9.81958C43.2748 11.6298 44.6547 13.7406 45.1223 16.3564C45.7602 19.9251 44.951 23.1315 42.5837 25.9024C41.0811 27.6613 39.2037 28.8235 36.9821 29.4307C36.9064 29.4514 36.8387 29.5019 36.7622 29.5412C36.8086 29.8092 37.0394 29.8368 37.2116 29.9092C39.9874 31.0778 42.765 32.2424 45.5458 33.3988C45.9164 33.5529 46.1163 33.7082 45.9285 34.1707C45.1335 36.1279 44.1004 37.914 42.4675 39.2953C40.6741 40.8122 38.6247 41.7213 36.2835 41.9437C32.981 42.2575 30.0943 41.2625 27.6406 39.057C25.6594 37.2761 24.4923 35.0206 24.0966 32.3693C23.8735 30.8744 23.9241 29.3952 24.3162 27.9309C24.3564 27.7807 24.4023 27.6074 24.138 27.3865C19.5257 32.0243 14.9052 36.6703 10.2921 41.3088C6.91149 38.6124 5.17585 34.3379 6.11928 30.0051C7.10286 25.488 9.9861 22.7194 14.2914 21.3269C14.2221 20.9355 13.9162 20.8874 13.6682 20.7824C10.9705 19.6393 8.27347 18.4944 5.56968 17.366C5.24462 17.2304 5.11534 17.1063 5.25743 16.7351C6.32198 13.9538 7.96811 11.6574 10.6349 10.2283C13.8038 8.53015 17.0706 8.32252 20.3906 9.73449C23.9674 11.2556 26.126 13.9995 27.0046 17.7692C27.3854 19.4035 27.3302 21.0572 26.9511 22.6945C26.8964 22.9307 26.7925 23.1586 26.947 23.5576C28.3952 22.1056 29.7946 20.7026 31.2245 19.2688Z" fill="#1D1A1C"/>
<path d="M89.6133 38.0004L97.5513 27.8364L89.6133 17.5464H95.7033L100.701 24.0984L105.447 17.5464H111.495L103.599 27.8364L111.495 38.0004H105.447L100.365 31.4484L95.7033 38.0004H89.6133Z" fill="#1D1A1C"/>
<path d="M81.2786 10.5742H85.0166V38.0002H80.0606V16.4962C79.3186 16.8322 78.5906 17.0912 77.8766 17.2732C77.1626 17.4552 76.4486 17.5462 75.7346 17.5462V12.8002C76.6866 12.7022 77.6106 12.4852 78.5066 12.1492C79.4026 11.7992 80.3266 11.2742 81.2786 10.5742Z" fill="#1D1A1C"/>
<path d="M66.3079 10.5742H70.0459V38.0002H65.0899V16.4962C64.3479 16.8322 63.6199 17.0912 62.9059 17.2732C62.1919 17.4552 61.4779 17.5462 60.7639 17.5462V12.8002C61.7159 12.7022 62.6399 12.4852 63.5359 12.1492C64.4319 11.7992 65.3559 11.2742 66.3079 10.5742Z" fill="#1D1A1C"/>
</svg>
